<svg xmlns="http://www.w3.org/2000/svg" style="display:block" viewBox="0 0 228 228"><path d="m0 0 4 1 3.785 1.777 4.277 2.16 4.286 2.153L20 9l3 2V9l3.875-.852 2.488-.39L32 7.375l2.543-.406 2.52-.383L42 6l4.453-.117L50 6l2.75.5L55 8l2.125 3.75L59 16l1.375 3.188L62 22l2.688 2.938L68 27l3.875-.125L76 26l3.762-.773L84 25l4.027 1.406 3.91 2.094 3.965 2.031L99 33l1 3.36V40l-.34 3.36-.597 3.39-.563 3.691L98 54l-.313 2.965-.124 2.722.058 2.645L98 65l.91 2.95 1.215 2.925 1.363 2.738L103 76l3.313 3.063L109 81v2l4 2 2.395 3.45 2.418 4.237 2.457 4.2L122 101l.074 3.707L121 108l-2.18 2.598L116 113l-3.008 2.621-3.117 2.817-3.172 3.187L104 125l-1.516 3.438-.859 3.5-.508 3.546L101 139l.258 3.39.492 3.298.598 3.207L103 152l.684 3.012.504 2.863.214 2.684L104 163l-1.559 2.098-2.191 1.84-2.488 1.664L95 170l-2.98.96-2.957.852-2.805.958L84 174l-1.563 4-.257 2.594L82 184l-.194 2.387-.236 2.644-.255 2.719-.252 2.75-.192 2.719c-.07.845-.14 1.691-.21 2.562L80 204l-3 2-3.582-1.52-4.23-2.292-4.208-2.27L61 198l-3.387-1.137L55 197l-1.145 2.598L53 203l-1.7 2.809-1.987 2.629-1.95 2.683L45 213l-3.281.02L38 212l-3.832-1.734-3.98-2.016-4.231-1.91L22 205l-3.05.066-2.575.746L12 208l-3.125 1.688L6 212l-2.035 2.07-2.152 2.243-1.981 2.175L-2 220l-3-1v-2h-2l-1.875-3.395-2.125-4.417-2.125-4.395L-15 201l-2-3-4.688 1.125-2.707.902L-27 201l-3.875 1.688L-34 204h-4l-1.887-3.324-1.8-4.363-1.825-4.325L-45 188l-.574-2.957L-46 183l-2.125-1-2.875-1-2.813-2.516L-58 176l-3.082-.486-3.473-.186-3.61-.074-3.71-.004-3.781-.05-3.586-.06-3.277-.014L-85 175l-1-1-.563-3-.437-4-.25-4.375L-87 158l1.375-4.5L-84 149l1.188-4 .457-2.227L-82 140l.262-3.96.113-4.415-.043-4.441L-82 123l-.863-3.402-1.075-2.91-1.09-2.489L-86 112l-1-4-2.238-1.156L-92 106l-2.605-.719-2.582-.781-2.598-1.059L-102 102l-1.371-2.098-.754-2.465-.293-2.656L-104 92l1.512-2.781 2.05-2.781 2.274-2.77L-96 81l1.477-2.45c.4-.758.799-1.518 1.21-2.3L-91 72l2.125-3.688L-86 65l2.41-1.484c.917-.48 1.833-.96 2.778-1.453l2.89-1.465L-75 59l2.797-1.941 2.64-2.059 2.465-2.05L-65 51l2.5-3.188L-61 45l1.313-2.375L-59 40l-.25-3.688L-60 32l-.73-2.668-.708-2.707L-62 22l2.456-1.24L-56 20l3.843-.47 4.302-.311 4.74-.364 4.928-.355 4.892-.355 4.752-.364 4.528-.376L-20 17c1.02-.15 2.04-.3 3.092-.453l2.455-.488c1.14-.35 2.279-.7 3.453-1.059l1.438-2.438L-9 10l2-3h2V5h2l2-4 1-1z" transform="translate(105 4)" style="fill:#130b07"/><path d="M0 0h4v2h2v2l2.188.375L11 5l2.5 2L16 9l2.75.625L21 10l1 2 .125 3L22 18l-1 2h-2l-.844 3.344L17.5 27.5l-.496 3.879L17 34l2.438-2.563 1.69-2.554L23 26l1.965-2.695 1.91-2.492L30 17v3l-2.398 3.61-1.45 2.035-1.527 2.105-1.598 2.152-1.425 2.02L20 35c.847.015 1.694.03 2.566.047L26 34l2.313-1.5L31 31l4.5-.438L40 30l2.875-2L45 26l3-1 4.25-.563L56 25l.625 3.813L55 33l-2.219 1.094-2.656.718-2.68.52L45 36l-3 3-1.973 1.605-2.09 1.583L34 45h-2v2l-3 1-3 1v2l3.5-.75L33 49v-2l2-1.563L38 44l3.938-.625L46 43l3.313-.625L52 42l3 1-1 4-3 2-4.45.344-2.568.09-2.67.066-2.705.066-2.556.09L32 50v2h-2l1 4 2.984.498 3.98.006 4.366.057 4.608.002 4.501.013 4.4.053 4.274.098L64 57l3.157.66 2.66.805L74 60l4 1 3-2h3v2l-3 1 1.125 4.25.902 2.469L84 71l1.688 2.75L87 76v5l-3 4-3.25 1.25L77 87l-3.375.563L70 87l-2.371-1.531-2.442-1.906c-.748-.639-1.497-1.277-2.269-1.934L61 80l-2-1-2.363-.238-2.95-.075-3.203.016L47 79l-3.86.86c-1.221.355-2.443.71-3.703 1.078l-3.503 1.09L34 83l2.16.566L39 84v1h-5v2l4 2 2.875 1.367L44 91.875l3.125 1.492L50 95l2.375 2.07L54 99v2l3 1 1.605 2.258 1.583 2.867 1.578 3.004L63 113l.438 4.063L63 120l-1 2-3.438.313L55 122l-2-3 1-1-1.992-.902-2.883-1.035-3.043-1.067L43 114l-2.738-.777-2.45-.598L34 112v2h-2l1.82 3.324 1.161 2.217L36 122l.464 2.58.216 2.69c.04.908.082 1.816.125 2.751l.07 2.792.14 2.85.102 2.732L37 143l-2 3h-2v-2l-3.375-.5L26 143l-2-2v-3l-2.75-.313L18 138l-4 2v3h-2l.563 3.875L12 151l-2.371 1.188-3.004.687-3.023.555L1 153l-1.352-2.45L-1 147l-.125-4.262.125-4.425.125-4.512L-1 131l-.813 1.855L-3 136l-3 3-3.313 1.438L-12 141l2-4 2.121-3.121 2.316-3.316 2.372-3.372L-2 125l-2.059.973L-7 128l-3.5 2.875L-14 134l-2.688 2.625L-19 139c-1.02 1.176-1.02 1.176-2.063 2.375L-23 143l-4-1-.5-4.563.117-2.746L-27 132l1.625-4.125L-23 124l1.46-2.098 1.54-2.09 3-3.812 2.75-3.188L-13 111l-2.688 1.063L-19 114l-1 2-3.375 2-3.625 2-3 2 2-4 3-1v-2l3-1 2-3 3-1-4-.375-2.574.023L-26 110l-2.813 2.25L-31 115l-1.598 2-2.402 2-4.04 1.484-4.585 1.266-4.602 1.297L-52 124h-2l1.438 3.5.562 3.5-4.313.875L-61 131l-1.188-3.188L-62 124l.688-2.938L-60 119h4l.758-2.266.367-2.984.383-2.953L-54 108l2-4h2l2-4 .973-2.332 1.09-2.48 1.312-2.66L-43 90l2.188-1.996 2.374-1.754 2.352-1.652L-34 83l2.438-3.313L-30 77l2-2 4.188-1.625L-21 72l-3.938-.438-2.652-.058L-30 72l-2 4-3 1-1 2-3.563.5L-43 80v2l-2.375 1.625L-48 85h-2l-2 4-2.813 2.563L-58 94l-2.625 1.563L-63 97l-2.125 2.25L-67 101l-3-1h2l.438-4.188L-67 91l1.438-3.063L-64 86h2v-2l4-2 4 1v2h2v-5l4.25-2.5c.789-.36 1.578-.722 2.39-1.094L-43 75l2.629-2.84L-39 70l-1.988.902c-1.097.672-2.194 1.344-3.325 2.035l-3.445 2.075L-51 77l-3.688 2.25L-58 81l-2.281.941-2.407.871L-67 84l-4-1-4-1-.977-3.71-.648-4.665-.664-4.648L-78 65l-2-3 .25-3.938L-79 55l2 4v3l2 1 1-4 2-1 .25-2.625L-71 53l2.938.5L-65 54l1.25-2.313L-63 49l2-2 2.625-.875L-55 45l3.938-1.938L-47 41l3.059-1.563L-40 38l2.579-.395 2.804-.265 2.844-.217 2.898-.185 3.016-.198 2.804-.213L-19 36l-3-2-3.547-.746-4.203-.691-4.172-.684L-38 31l-3.89-1.348L-45 28l-2-4 3-2 4 2 2.902-.137 3.035-.55 3.09-.512L-29 22l-3-3-3.54-.625-4.085-.375-4.102-.375L-47 17l-1-3 4-1 2-4 3.563-.938L-35 8l1 3 4.07.645 2.467.126 2.588.041 2.594.04 2.441-.079L-16 11l.371-2.273-.809-2.79L-17 1l3.648-.371 4.79.371 4.808.625L0 2V0z" transform="translate(114 39)" style="fill:#b92d07"/><path d="m0 0 4 1 3.785 1.777 4.277 2.16 4.286 2.153L20 9l3 2V9l3.875-.852 2.488-.39L32 7.375l2.543-.406 2.52-.383L42 6l4.453-.117L50 6l2.75.5L55 8l2.125 3.75L59 16l1.375 3.188L62 22l2.688 2.938L68 27l3.875-.125L76 26l3.762-.773L84 25l4.027 1.406 3.91 2.094 3.965 2.031L99 33l1 3.36V40l-.34 3.36-.597 3.39-.563 3.691L98 54l-.313 2.965-.124 2.722.058 2.645L98 65l.91 2.95 1.215 2.925 1.363 2.738L103 76l3.313 3.063L109 81v2l4 2 1.75 2.5L116 90v2h-2l-2-4-4-2-.5-2.688L107 81l-4 1-1.313-2.813L100 76l-2.887-1.203L93 74l-2.615-.104-2.854.014-2.98.06-3.051.093-3.05.103-2.981.057-2.858-.007L70 74l-4.05-1.508L63 71l-2.688.063L58 72l-2.75 2.125L54 76l2.938-.375L61 75l2.938.75L66 77v3h-2v-2l-3.188-.25L57 78l-2.563 1L52 80h-6l-4 2v2l-4 2h-3v-2l3-1 3-1v-2l2.75-1.938L47 76l4-3h2l1-3 2.25-1.188L59 68h5l.75-3.5L64 61l-3.063-.688L57 61l-3.875 1.938L50 65l-1 1-4.063.313L40 67l-4.313 2.125L32 71l-4-1 1.324-2.652 2.363-3.285 2.325-3.278L36 58l1-2-1.5 1.813L33 61l-1.793 2.414c-.625.833-1.25 1.666-1.895 2.523l-1.824 2.465c-.49.528-.982 1.055-1.488 1.598l-1-2 .488-3.04.825-3.585.8-3.602L28 55h2l.371-2.188.067-2.812.12-2.813L30 45h-5l-2.5-1.875L20 41l-2.813-1.125L15 39v-2h-2v-2H9v2l-2.45.23-3.237-.042-3.2-.02L-3 37l-2.977-.82L-8 36l.363 2.09.95 2.847.48 2.793L-7 46l-3.887.738-4.988.012-2.585-.067-2.47-.136L-25 46l-1-2-4-1-1 2-3 1-2.188 1.938L-38 50v2h4.625c.911-.015 1.823-.03 2.762-.047L-28 52l3.438.75L-22 54l3 4-3.563.688L-27 59l-4 1-2.75-1.188L-36 58v4l4.188 2.125 2.746 1.004L-26 66l3.348.59 3.402.472 3.309.438L-13 68l3.813 1.563L-7 71v1l-4.828.36c-1.023.06-2.045.122-3.099.185l-3.323.205-3.331.239-3.294.28-3.219.327L-31 74l-4.125 1.137-3.125 1.3-2.578 1.247L-43 79l-4 3-3.063.813L-53 84l-1.688 3.125L-56 90h-3v-2h-3v5l-3 2-1 3-3-1-1-4h-1l.063-4.5L-71 84h-2v-2h2l.188-3.313L-71 75l-1-3 2.492-.844 3.383-.656 3.367-.656L-60 69l1-3-2.902.145c-1.332.22-2.664.44-4.035.668l-4.165.632L-74 68l-4.813.188L-82 68l-2-1v2h-4l2-4 2.25-1.422L-81 62.25l2.973-1.547L-75 59l2.809-1.953L-69.562 55l2.464-2.05L-65 51l2.5-3.188L-61 45l1.313-2.375L-59 40l-.25-3.688L-60 32l-.73-2.668-.708-2.707L-62 22l2.456-1.24L-56 20l3.843-.47 4.302-.311 4.74-.364 4.928-.355 4.892-.355 4.752-.364 4.528-.376L-20 17c1.02-.15 2.04-.3 3.092-.453l2.455-.488c1.14-.35 2.279-.7 3.453-1.059l1.438-2.438L-9 10l2-3h2V5h2l2-4 1-1z" transform="translate(105 4)" style="fill:#3e1e0f"/><path d="m0 0 2.875.25L6 1l2.366 1.04L11 3l2.568.195 2.705-.07c.99-.015 1.98-.03 3-.047L22.375 3l3.078-.078 3.008-.047h2.893L34 3l4.102.875L41 5l2 2 2 4h3l.375 2.375L49 16l2.5 1.063L54 18l1 4 4 2 2.313 3.188L63 31c.03 1.794.03 1.794.063 3.625L62 38l-2.184 2.371L57 43l-3.008 2.621-3.117 2.816-3.172 3.188L45 55l-1.516 3.438-.859 3.5-.508 3.546L42 69l.258 3.39.492 3.297.598 3.208L44 82l.684 3.012.504 2.863.214 2.684L45 93l-1.559 2.098-2.191 1.84-2.488 1.664L36 100l-2.98.96-2.958.853-2.8.93L25 104l-1.625 4.438-.258 2.613L23 114l-.242 3.543-.258 3.582-.156 3.383L22 127h-2l-.266-3.5.016-4.5-.016-4.5L20 111h2l-1-4-3 1-1-3h-2l-.055 2.258.18 2.867L15 115l-4-2-1-4H8l-1-2-3.438-1.875L0 104l-2 4-1.75 3.188L-6 114l-3.25.688L-12 115v3l-2.25.75-2.75.25-4-1-4 1v-2l-3.5-.5-4.5.5-3.938 3-1.964 1.656L-41 123l-2.504.469-2.496.031-4-.5v-2h-3v-2h-3l-.371-2.371-.066-3.067-.06-3.058L-57 108l-4-1-.063 3.938L-61 115h-3l-.625-3.875L-65 108l-.25 2.313L-66 114l-2.438 2.375L-71 118h-2v4h-3v-3h-5l-2.313-2.25L-85 113l-.14-3.07c.025-1.09.05-2.181.078-3.305l.214-3.21L-85 101h-3l-2 4-1-3-4 2h-5v-2l-4.5-.375-4.5-.625v-4h-3v-2h-2l.25-3.375L-113 88l2-2-.438 4.875-.097 2.813L-111 96l4.625.875L-102 96l-2-4v-3l3.875-1.5 2.48-.758L-95 86l2.613-.68 2.575-.695 2.515-.746L-85 83l3.438-2.438L-79 78l3-4 2.77-.46c1.004.027 2.008.056 3.043.085l3.082.04c.694.11 1.39.22 2.105.335l-2 2-3 1-2 3h-3v2l-1 1 3-2h3l1-3 3.688-1.938L-62 75l-2 4-2.938 3.5L-70 86l-3 4-1.625 3.125L-76 97l-.586 2.71-.414 2.79v4.5l2.063.563L-72 106l3.063-3.5L-66 99l4-1 1-3 1.777-1.64 2.16-1.61L-53 89l2 1-1.52 2.652-2.292 3.285-2.27 3.278L-59 102l-1 2h4l1-3 2-1 1.063-3.563L-51 93h1l.063 3.98-.024 2.53-.039 2.677-.04 2.62-.023 2.548L-50 112l.152 3.094L-49 117l2.504.55 3.059-.237 3.03-.383L-38 116l.563-4.063L-38 108h2v-3l4-3 3.125.063L-26 103l2 4 3.625 1.125L-17 109v2h2l.64-1.91c.12-1.02.238-2.04.36-3.09l-.016-4.434-.105-2.466-.129-2.537-.082-2.526-.121-2.47L-15 87l-1.547-3.473L-18 81v-2h2v-2c1.856.03 1.856.03 3.75.063l2.45.324L-7 78l3.27 1.082 3.292 1.293 3.13 1.273L5 83v3l3.5 1.25L12 87l.813-3.75-.192-2.5L12 78l-1.152-2.875-1.473-2.875-1.64-2.793L6 67l-3.375-3.063L0 62v-2l-2-.875L-5 58l-4.125-2L-13 54l-3-2-1-4 3-1.625L-10 45l3.188-1.188L-3 43l2.793-.332 3.082-.168 3.11.04L9 43l2.703 1.273 2.422 1.602L18 49l2 2 3.188.188L27 51l3.813-.25L34 50l2-4-.188-3.438L35 39l-1.438-2.5L32 34l-1.438-3.75L30 27l4-1v-2l-2.25 1.563L28 27l-3-.426-3.25-.824-3.14-.89L16 24l-2-1-3.209-.174-4.1-.072-4.45-.1-4.678-.091-4.667-.08-4.455-.104-4.103-.076L-19 22l-3-2 2-1v-2h2v-2l2.059-.602L-13 14l3.41-.21c1.205-.055 2.41-.11 3.652-.165l3.66-.148L1 13l4-3h2V7l-4.188-.75L-2 6l-3.188.5L-7 7l2-1 2-4 3-2z" transform="translate(164 74)" style="fill:#331409"/><path d="M0 0v3l-2.398 3.61-1.45 2.035-1.527 2.105-1.598 2.152-1.425 2.02L-10 18c.847.015 1.694.03 2.566.047L-4 17l2.313-1.5L1 14l4.5-.438L10 13l2.875-2L15 9l3-1 4.25-.563L26 8l.625 3.813L25 16l-2.219 1.094-2.656.718-2.68.52L15 19l-3 3-1.973 1.605c-1.034.784-1.034.784-2.09 1.582L4 28H2v2l-3 1-3 1v2l3.5-.75L3 32v-2l2-1.563L8 27l3.938-.625L16 26l3.313-.625L22 25l3 1-1 4-3 2-4.45.344-2.568.09-2.67.066-2.705.066-2.556.09L2 33v2H0l1 4 2.984.498 3.98.006 4.366.057 4.607.002 4.502.013 4.4.053 4.274.098L34 40l3.157.66 2.66.805L44 43l4 1 3-2h3v2l-3 1 1.125 4.25.902 2.469L54 54l1.688 2.75L57 59v5l-3 4-3.25 1.25L47 70l-3.375.563L40 70l-2.371-1.531-2.441-1.906-2.27-1.934L31 63l-2-1-2.363-.238-2.95-.075-3.203.016L17 62l-3.86.86-3.703 1.078-3.503 1.09L4 66l2.16.566L9 67v1H4v2l4 2 1 3h3l-.25 2.75L11 81l-1 4H6l-1.063 2.313L4 90l-3 3-4.688.563L-8 94v2l-3 1-3.574.168-4.114.02-4.136.042L-26 97v-2l-2.313-.75L-31 94l-3 2-3-.188-3-.812-3-3-4.012-.809-4.675-.629-4.7-.62L-60 89v-4l-4 1-.172-3.55.422-4.763.39-4.738c.12-1.303.238-2.606.36-3.949v-2l1.645-1.727 2.167-1.898 2.145-1.914L-55 60h3v-2l4-1v-3h2l-.625-2.438L-48 49l-4-1-1.375-2.375L-54 43l2-3 .492-2.523.383-2.852.5-2.953L-50 29l1.875-3.125L-46 24l4-1 2-3 .375-2.625L-39 15l4-1 1.375-2.5L-32 9l3.188-.938L-26 8v2l3.75.5 4.25.5 4 2 1 4 2.625-3.188 1.61-2.28L-7 9l1.953-2.656c.634-.836 1.269-1.67 1.922-2.532L0 0z" transform="translate(144 56)" style="fill:#eed47a"/><path d="m0 0 4.336-.16 3.601-.027 3.153.019L13 0l-2 1 1 2 4 2h-5l1.375 2.813L15 10l2.5-2.063L20 5l4-2 2.688-.563L30 3l2.21 1.46 2.352 1.853 2.32 1.933L39 10l2.938 1.875L44 13l2 1-1.063-4.438L44 5h3l.063 4.5L47 14h2l1-2.125L51 9l1.125-3.188L53 3V1h5l3 4 .25 4.188L61 13l-1 1-.313 4.438L60 23l4 2 3.625-3.188 1.79-1.917c.522-.626 1.046-1.25 1.585-1.895l2-3h2l2-4 3.313-.938L84 10l2.875 1.125L89 13l.938 2.688L90 18h-2v2l-3.5 1-3.5 1v2l-2.813 1.625L75 27h-3l-2 4h-2l-1.5 4.688-.773 2.753L65 41l-1.125 3.125L63 46h-1l.313-4.5L63 37h2l.371-2.188.067-2.812.12-2.813L65 27h-5l-2.5-1.875L55 23l-2.813-1.125L50 21v-2h-2v-2h-4v2l-2.45.23-3.237-.043-3.2-.019L32 19l-2.977-.82L27 18l.363 2.09.95 2.848.48 2.792L28 28l-3.887.738-4.988.012-2.585-.067-2.47-.136L10 28l-1-2-4-1-1 2-3 1-2.188 1.938L-3 32v2h4.625c.911-.015 1.823-.03 2.762-.047L7 34l3.438.75L13 36l3 4-3.563.688L8 41l-4 1-2.75-1.188L-1 40v4l4.188 2.125 2.746 1.004L9 48l3.348.59 3.402.472 3.309.438L22 50l3.813 1.563L28 53v1l-4.828.36c-1.023.06-2.045.122-3.099.185l-3.323.205-3.331.239-3.294.28-3.219.327L4 56l-4.125 1.137-3.125 1.3-2.578 1.247L-8 61l-4 3-3.063.813L-18 66l-1.688 3.125L-21 72h-3v-2h-3v5l-3 2-1 3-3-1-1-4h-1l.063-4.5L-36 66h-2v-2h2l.188-3.313L-36 57l-1-3 2.492-.844 3.383-.656 3.367-.656L-25 51l1-3-2.902.145-4.035.667c-1.375.21-2.749.418-4.165.633L-39 50l-4.813.188L-47 50l-2-1v2h-4l2-4 2.25-1.422L-46 44.25l2.973-1.547L-40 41l2.809-1.953L-34.562 37l2.464-2.05L-30 33l2.5-3.188L-26 27l1.313-2.375L-24 22l-.25-3.688L-25 14l-.73-2.668-.707-2.707L-27 4l2.336-1.219L-21 2l4.723-.633 2.615-.254 2.725-.238 2.8-.255 2.801-.241 2.747-.21L0 0z" transform="translate(70 22)" style="fill:#cb4e11"/><path d="m0 0 4 1-1.563 1.813L0 5l-3 4h-2l1 2 .188 3.563L-4 19l-.59 2.563-.66 2.5L-6 28l4-1v4c1.361.03 1.361.03 2.75.063L5 31l3.102.547 3.273.765 3.148.739L17 34l1 3 2.813.313L24 37l4-2v2h4v2l2.074-.379L37 38l3.332-.027 3.48.09 3.52.097L50 38v-2l2.336-.457 3.039-.355 3.023-.333L61 34l1.29-2.45L63 29l1-2h4l.688-2.75L69 21l1-4h-3l1-2 2.145.758 2.668 1.367 2.73 1.434c.81.475 1.622.95 2.457 1.441l2.625 2.188L82 24v2l3 1 1.605 2.258 1.582 2.867 1.579 3.004L91 38l.438 4.063L91 45l-1 2-3.438.313L83 47l-2-3 1-1-1.992-.902-2.883-1.035-3.043-1.067L71 39l-2.738-.777-2.45-.598L62 37v2h-2l1.82 3.324 1.161 2.217L64 47l.464 2.58.216 2.69c.04.908.082 1.816.125 2.751l.07 2.791.14 2.85.102 2.733L65 68l-2 3h-2v-2l-3.375-.5L54 68l-2-2v-3l-2.75-.313L46 63l-4 2v3h-2l.563 3.875L40 76l-2.371 1.188-3.004.687-3.023.555L29 78l-1.352-2.45L27 72l-.125-4.262.125-4.425.125-4.512L27 56l-.813 1.855L25 61l-3 3-3.313 1.438L16 66l2-4 2.121-3.121 2.317-3.316 2.37-3.372L26 50l-2.059.973L21 53l-3.5 2.875L14 59l-2.688 2.625L9 64c-1.02 1.176-1.02 1.176-2.063 2.375L5 68l-4-1-.5-4.563.117-2.746L1 57l1.625-4.125L5 49l1.46-2.098L8 44.812 11 41l2.75-3.188L15 36l-2.688 1.063L9 39l-1 2-3.375 2L1 45l-3 2 2-4 3-1v-2l3-1 2-3 3-1-4-.375-2.574.023L2 35l-2.813 2.25L-3 40l-1.598 2L-7 44l-4.04 1.484-4.585 1.266-4.602 1.297L-24 49h-2l1.438 3.5L-24 56l-4.313.875L-33 56l-1.188-3.188L-34 49l.688-2.938L-32 44h4l.758-2.266.367-2.984.383-2.953L-26 33l2-4h2l2-4 .973-2.332 1.09-2.48 1.312-2.66L-15 15l2.188-1.996 2.374-1.754 2.352-1.652L-6 8l2.438-3.313L-2 2l2-2z" transform="translate(86 114)" style="fill:#ef922b"/><path d="M0 0h4L3 4l-2.54.836-3.085.539c-1 .235-2 .47-3.031.71L-8 7l-.125 3L-7 13l-1 3h-2v2h2l.309 2.598.128 3.465.215 3.628L-7 31l1.5 3.5L-4 38l.137 3.273.05 3.602.204 3.395L-3 51l3.438 1.563L5 52l4.5-1.375 2.5-1.102L15 48l4.125-2.273 2.186-1.23L23.5 43.25l4.156-2.422L31 39h2l-2 4-3 3-3 1-2 2h-2l-.5 2.5L20 54h-2l-1-2-3.563.25L10 53v2H8l-1 1.938L6 60l-.816 2.547-.747 2.64L4 69l3.063-2.25 1.996-1.914L11 63l2.625-1.625L16 60l2.625-2L21 56l3-3 2.688-1.063L29 51v-2l3.438-.438L36 48l1-3h3l.816-2.465L42 40l2.777-.629 3.16.066 2.997.13L53 40l-1.5 1.875L48 44l-2.508.863L43 46l-1.773 1.988-1.602 2.325-1.797 2.46L36 55l-3.625 2.438L29 60l-1.48 2.418-1.332 2.707-1.145 2.57L24 70l-2 3h-2l-.816 2.52-.747 3.293-.753 3.269L17 85l-1 3-2.563 1.188L11 89l-.563-3.563L11 81l1.875-3.313L15 75l2-3-3.25 2.125-2 1.695L10 78l-.813 2.93L8.75 84l-.266 3L8 89l-3-2v-2l-2.375-1.063L0 84l-.75 3.125L-2 91l-1.871 1.582-2.317 1.356-2.425 1.183L-11 96l-3.875.5L-18 96l-3-3-3-1 1.188-4 .906-2.5L-21 83l1.188-4 .457-2.227L-19 74l.262-3.96.113-4.415-.043-4.441L-19 57l-.863-3.402-1.075-2.91-1.09-2.489L-23 46l-1-4-2.238-1.156L-29 40l-2.605-.719-2.582-.781-2.598-1.059L-39 36l-1.371-2.098-.754-2.465-.293-2.656L-41 26l1.512-2.781 2.05-2.782 2.262-2.753L-33 15l1.582-2.59 1.293-2.41L-28 6l2-3h5V1l2.563-.16L-15 .938l3.59.058L-8 1l4.563-.5L0 0z" transform="translate(42 70)" style="fill:#19100a"/><path d="m0 0 2.77-.46c1.004.027 2.008.056 3.042.085l3.083.04c.694.11 1.39.22 2.105.335L9 2 6 3 4 6H1v2L0 9l3-2h3l1-3 3.688-1.938L14 1l-2 4-2.938 3.5L6 12l-3 4-1.625 3.125L0 23l-.586 2.71L-1 28.5V33l2.063.563L4 32l3.063-3.5L10 25l4-1 1-3 1.777-1.64 2.16-1.61L23 15l2 1-1.52 2.652-2.293 3.285-2.269 3.278L17 28l-1 2h4l1-3 2-1 1.063-3.563L25 19h1l.063 3.98-.024 2.53L26 28.187l-.04 2.62-.023 2.548L26 38l.152 3.094L27 43l2.504.55 3.058-.237 3.032-.383L38 42l.563-4.063L38 34h2v-3l4-3c1.547.03 1.547.03 3.125.063L50 29l2 4 3.625 1.125L59 35v2h2l.64-1.91L62 32l-.016-4.434-.105-2.466-.129-2.538-.082-2.525-.121-2.47L61 13l-1.547-3.473L58 7V5h2V3c1.856.03 1.856.03 3.75.063l2.434.316L69 4l3.41 1.152L75.813 6.5l3.269 1.344L81 9l-4 1h-2l-1 2h2l.438 2.938L77 18l3 1v2h-4v2h6l2 2-.063 3.688L83 32h-2.438L78 31l-2-1-2 4-1.75 3.188L70 40l-3.25.688L64 41v3l-2.25.75L59 45l-4-1-4 1v-2l-3.5-.5-4.5.5-3.938 3-1.964 1.656L35 49l-2.504.469L30 49.5l-4-.5v-2h-3v-2h-3l-.371-2.371-.067-3.066-.058-3.06L19 34l-4-1-.063 3.938L15 41h-3l-.625-3.875L11 34l-.25 2.313L10 40l-2.438 2.375L5 44H3v4H0v-3h-5l-2.313-2.25L-9 39l-.14-3.07c.025-1.09.05-2.181.078-3.305l.214-3.21L-9 27h-3l-2 4-1-3-4 2h-5v-2l-4.5-.375L-33 27v-4h-3v-2h-2l.25-3.375L-37 14l2-2-.438 4.875-.097 2.813L-35 22l4.625.875L-26 22l-2-4v-3l3.875-1.5 2.48-.758L-19 12l2.613-.68 2.575-.695 2.515-.746L-9 9l3.438-2.438L-3 4l3-4z" transform="translate(88 148)" style="fill:#401c0e"/><path d="M0 0v3l-2.398 3.61-1.45 2.035-1.527 2.105-1.598 2.152-1.425 2.02L-10 18c.847.015 1.694.03 2.566.047L-4 17l2.313-1.5L1 14l4.5-.438L10 13l2.875-2L15 9l3-1 4.25-.563L26 8l.625 3.813L25 16l-2.219 1.094-2.656.718-2.68.52L15 19l-3 3-1.973 1.605-2.09 1.582L4 28H2v2l-3 1-3 1v2l3.5-.75L3 32v-2l2-1.563L8 27l3.938-.625L16 26l3.313-.625L22 25l3 1-1 4-3 2-4.45.344-2.568.09-2.67.066-2.705.066-2.556.09L2 33v2H0l1 4 2.984.498 3.98.006 4.366.057 4.607.002 4.502.013 4.4.053 4.274.098L34 40l3.157.66 2.66.805L44 43l4 1 3-2h3v2l-3 1 1.125 4.25.902 2.469L54 54l1.688 2.75L57 59v5l-3 4-3.25 1.25L47 70l-3.375.563L40 70l-2.371-1.531-2.441-1.906-2.27-1.934L31 63l-2-1-2.363-.238-2.95-.075-3.203.016L17 62l-3.86.86-3.703 1.078-3.503 1.09L4 66l2.16.566L9 67v1H4l-1 2-2.063-2.688L-2 64l-4.313-1.625L-10 61v-4l2-1 .23-4.848-.005-3.025-.037-3.19-.002-3.107c-.01-1.511-.01-1.511-.018-3.053l-.065-2.985L-8 33l-.324-4.621L-9 25l-3-2v-2h-2l1-4 2.625-3.688 1.61-2.062L-7 9c.645-.866 1.29-1.732 1.953-2.625l1.922-2.563L0 0z" transform="translate(144 56)" style="fill:#e9a009"/><path d="M0 0h2v2l2 1-1 3 4 2v2l2.188.563L12 11l2.813.438L17 12v2l4.875-.125 2.742-.195L27 14l2 4 .457 2.586.355 2.789.516 2.922L31 29l2.063 3.625L36 35l4.813 1H45v-2h3l2-4 .492-2.902.383-3.035.367-3.09L52 19l4 3v2h3l-.25 2.75L58 30l-1 4h-4l-1.063 2.313L51 39l-3 3-4.688.563L39 43v2l-3 1-3.574.168-4.114.02-4.136.042L21 46v-2l-2.313-.75L16 43l-3 2-3-.188L7 44l-3-3-4.012-.809-4.676-.629-4.699-.62L-13 38v-4l-4 1-.172-3.55.422-4.762.39-4.739c.12-1.303.238-2.606.36-3.949v-2l1.645-1.727 2.168-1.898 2.144-1.914L-8 9h3V7l4-1V3h2L0 0z" transform="translate(97 107)" style="fill:#f6d140"/><path d="m0 0 3.75.563L8 2l2.313 2.5L12 7l3 2v2h4v2l2.438.5L24 14l1 2 2.313 1.375L30 19l1.75 2.063L34 23l4.75 1.063L43 25v3h2l1.125 4.125L47 37l.688 3.125L47 43l-1.625 1.781-2.188 1.844-2.46 1.8L38 50l-2.977.98-2.96.833c-.925.306-1.849.613-2.801.93L27 54l-1.625 4.438-.258 2.613L25 64l-.242 3.543-.258 3.582-.156 3.383L24 77h-2l-.266-3.5.016-4.5-.016-4.5L22 61h2l-1-4-3 1-1-3h-2l-.055 2.258.18 2.867L17 65l-4-2-1-4h-2l-.563-3.25L9 52l-1-4-3.063-.625L2 47v-2h4l-1.75-2.25L2 40v-4H0l1-3 2.25.75L6 35l2.625.563L11 36l3 1 .563-3.75-.083-2.5L14 28l-1.137-2.875c-.49-.949-.982-1.898-1.488-2.875l-1.64-2.793L8 17l-3.375-3.063L2 12v-2l-2-.875L-3 8l-4.188-1.938L-11 4l-2-3 2.14-.328 3.11.078c1.016.015 2.032.03 3.078.047L-2 1l2 1V0z" transform="translate(162 124)" style="fill:#20110a"/><path d="M0 0h3l1.563 1.813L6 5l.633 2.57.554 2.867.504 2.895L8 16l-.375 3.625L8 22l3.375 1.125L16 23l4.5-1.375 2.5-1.102L26 19l4.125-2.273 2.186-1.23L34.5 14.25l4.156-2.422L42 10h2l-2 4-3 3-3 1-2 2h-2l-.5 2.5L31 25h-2l-1-2-3.563.25L21 24v2h-2l-1 1.938L17 31l-.816 2.547-.747 2.64L15 40l3.063-2.25 1.996-1.914L22 34l2.625-1.625L27 31l2.625-2L32 27l3-3 2.688-1.063L40 22v-2l3.438-.438L47 19l1-3h3l.816-2.465L53 11l2.777-.629 3.16.066 2.997.13L64 11l-1.5 1.875L59 15l-2.508.863L54 17l-1.773 1.988-1.602 2.325-1.797 2.46L47 26l-3.625 2.438L40 31l-1.48 2.418-1.333 2.707-1.144 2.57L35 41l-2 3h-2l-.816 2.52-.747 3.292-.753 3.27L28 56l-1 3-2.563 1.188L22 60l-.563-3.563L22 52l1.875-3.313L26 46l2-3-3.25 2.125-2 1.695L21 49l-.813 2.93L19.75 55l-.266 3L19 60l-3-2v-2l-2.375-1.063L11 55l-.75 3.125L9 62l-1.871 1.582-2.316 1.355-2.426 1.184L0 67l-3.875.5L-7 67l-3-3-3-1 1.188-4 .906-2.473L-10 54l1.188-4.438L-8 45c.017-.944.034-1.887.05-2.86L-8 39.313V35l2 2v4l3 1-.066 2.863-.497 3.45-.503 3.488L-4 54l1.785-1.707L0 50l3 1v2l4-1 1 2h2l.75-3.813.219-2.453L11 45l-.281-3.047-.469-3.016-.484-2.847L9 34H6l.75-2.938L8 28l1-1-2.125-2.313L4 22l-2.813-1.938L-1 18l-.438-3L-1 12l2-4h-2l-.188-2.875L-1 2l1-2z" transform="translate(31 99)" style="fill:#191816"/><path d="M0 0h4v2h2v2l2.188.375L11 5l2.5 2L16 9l2.75.625L21 10l1 2 .125 3L22 18l-1 2h-2l-.598 2.95-.465 3.738-.472 3.761L17 33l-1-3-2.723-.879-3.34-.683-3.347-.692L4 27v-2l-2.813.563L-2 27l-1.563 2.563L-5 32l-2.188.922L-10 33l-3.121-1.8-3.316-2.512-3.31-2.489L-23 24l-3.223-1.105L-29 22l-3-3-3.54-.625-4.085-.375-4.102-.375L-47 17l-1-3 4-1 2-4 3.563-.938L-35 8l1 3 4.07.645 2.467.126 2.588.041 2.594.04 2.441-.079L-16 11l.371-2.273-.809-2.79L-17 1l3.648-.371 4.79.371 4.808.625L0 2V0z" transform="translate(114 39)" style="fill:#f4ad05"/><path d="m0 0 3.688-.313L7 0l3.25.75L13 2l3 4-3.563.688L8 7 4 8 1.25 6.812-1 6v4l4.188 2.125 2.746 1.004L9 14l3.348.59 3.402.473 3.309.437L22 16l3.813 1.563L28 19v1l-4.828.36c-1.023.06-2.045.122-3.099.185l-3.323.205-3.331.239-3.294.28-3.219.327L4 22l-4.125 1.137-3.125 1.3-2.578 1.247L-8 27l-4 3-3.063.813L-18 32l-1.688 3.125L-21 38h-3v-2h-3v5l-3 2-1 3-3-1-1-4h-1l.063-4.5L-36 32h-2v-2h2l.188-3.313L-36 23l-1-3 2.492-.844 3.383-.656 3.367-.656L-25 17l1-3-2.902.145-4.035.668-4.165.632L-39 16l-4.813.188L-47 16l-2-1v2h-4l2-4 4.402-1.16 2.719-.446L-41 11l2.829-.382 2.862-.364c.965-.115 1.93-.23 2.924-.35l2.947-.341c.977-.11 1.953-.218 2.96-.33l2.92-.354 2.82-.39L-18 8l2.718-.696 2.497-.777L-9 5V3l4.063-1.625 2.492-.77L0 0z" transform="translate(70 56)" style="fill:#39251d"/><path d="m0 0 4 1 3.785 1.777 4.277 2.16 4.286 2.153L20 9l3 2V9l4.016-.887 2.543-.404 2.691-.396 2.645-.432 2.558-.393L42 6l4 1h-2l-2 4-1.063 2.375L40 16l-.313 3L39 22l-2.375 2.25L34 27l-.926 2.535-.761 2.777L31 37h-2l-.938 3.063L27 43l-3-1-.328-2.25.078-2.75c.015-.907.03-1.815.047-2.75L24 32l1-1 .188-3.875L25 23l-2-3-2.688-.875L18 19l1 3-1.313 3.5L16 29l-2 3h-2l.063-4.5L12 23H9l1.188 4.625L11 32H8.625L5 30l-2.117-1.691L.75 26.437l-2.016-1.878C-1.838 24.044-2.41 23.529-3 23l-2-1-4.375.25L-14 23l-4 3-2 3-1-3-3-1v-6l2.082-1.07 2.73-1.055 2.708-1.07L-14 15h3l1.063-2.313L-9 10l2-3h2V5h2l2-4 1-1z" transform="translate(105 4)" style="fill:#503a2c"/><path d="m0 0 2.46-.266 2.915.016 2.898-.016L11 0l4 2 3.563.938L22 4l3 3v2h2l-.625 2.375L26 14l4 2 .063 3.688L30 23l3-1v-5h3l.258-2.188L36.125 12l-.117-2.813L36 7h1l.395 2.563.417 3.437.536 3.594L39 20l1.75 4.5L43 28l3.25 2.875L49 33v2l4 2 1.75 2.5L56 42v2h-2l-2-4-4-2-.5-2.688L47 33l-4 1-1.313-2.813L40 28l-2.887-1.203L33 26l-2.615-.104-2.854.014-2.98.06-3.051.093-3.05.103-2.981.057-2.858-.007L10 26l-4.05-1.508L3 23c-1.33.03-1.33.03-2.688.063L-2 24l-2.75 2.125L-6 28l2.938-.375L1 27l2.938.75L6 29v3H4v-2l-3.188-.25L-3 30l-2.563 1L-8 32h-6l-4 2v2l-4 2h-3v-2l3-1 3-1v-2l2.75-1.938L-13 28l4-3h2l1-3 2.25-1.188L-1 20h5l.75-3.5L4 13l-3.063-.688L-3 13l-3.875 1.938L-10 17l-1 1-4.063.313L-20 19l-4.313 2.125L-28 23l-4-1 1.219-2.582 2.281-3.23 2.219-3.208L-24 10l2.281-2.574L-20 6v3l2.813-1.063L-13 6l2.844-1.031c.98-.34 1.96-.68 2.969-1.032l2.832-.972L-2 2l2-2z" transform="translate(165 52)" style="fill:#d03905"/><path d="m0 0 2 1-2 3-4 1-3 4-.95 3.094-.737 3.406-.762 3.406L-10 22v6l4 1-1 2-3.125-.875-2.156-.598L-15 29l-3.656-.246-3.969-.067-3.79-.05L-30 29l-3.336 1.52L-36 32h-2v2h-6v2l-4 2-2.715.14L-53 37l-.629-3.64.066-4.61-.003-4.578L-53 20l1.848-2.922L-49 15l3-2 3.188.063L-40 13v-3l4-2h4V6h3V4h5V2l2.171-.427 3.009-.241 3.254-.268 3.441-.252 3.418-.287L-5.445.27-2.43.038 0 0z" transform="translate(102 76)" style="fill:#e27207"/><path d="M0 0v5l3.098.273 3.965.102 3.972.086L14 6l-1 4h3l.375 2.375L17 15l2.5 1.125L22 17l1 3 3 1v3l4-1 1-3 3.063-.063L37 20v-2h2l1-4 3-2 .441-2.453.121-2.797L44 2l2 2 1.574 2.457L49 10l.366 2.408.216 2.666.135 2.772.096 2.841.154 2.877.115 2.76L50 31l-2 3h-2v-2l-3.375-.5L39 31l-2-2v-3l-2.75-.313L31 26l-4 2v3h-2l.563 3.875L25 39l-2.371 1.188-3.004.687-3.023.555L14 41l-1.352-2.45L12 35l-.125-4.262.125-4.425.125-4.512L12 19l-.813 1.855L10 24l-3 3-3.313 1.438L1 29l2-4 2.121-3.121 2.316-3.317 2.372-3.37L11 13l-2.059.973L6 16l-3.5 2.875L-1 22l-2.688 2.625L-6 27l-2.063 2.375L-10 31l-4-1-.5-4.563.117-2.746L-14 20l1.625-4.125L-10 12l1.46-2.133C-8.03 9.17-7.522 8.47-7 7.75L-4 4l2.375-2.688L0 0z" transform="translate(101 151)" style="fill:#c53806"/><path d="m0 0 2.691-.203L5.563-.25l3.18.035L12 0l3.133.496 3.055.692 2.984.832L24 3l2.578 1.137 2.36 1.238L33 8l3.063 2.688L38 13v2h-2l1 2 3.5 1.875L44 21l1 4-3.188.313L38 25l-4-1v-3l-3.438-.688L26 20l-4.625-.25L17 20l-3.375 1.438L11 23l-3 1-1 3-3.313 2.188L0 31h-4l.563-4.188c.21-.817.422-1.634.64-2.476L-2 22l1.813-3.063L1 17h-3l-1.203-2.484-1.047-3.266-1.078-3.234L-6 5l1-4 2.215-.734L0 0z" transform="translate(49 24)" style="fill:#3c0d04"/><path d="M0 0h3v3h8l4 3 1.25 2.563L17 12l.313 4.813-.055 2.574L17 22l-.57 2.645-.742 2.48L14 31h-3v2l-4 1-3.25.25L0 34l-4.313-1.188L-8 31l-1.375-2.688L-10 26h-2l-1.125-2-.875-3-.313-3.938L-14 13l1.25-3.313L-11 7l4-3 3.188-.5L-1 3l1-3z" transform="translate(115 82)" style="fill:#edde95"/><path d="m0 0 3.375-.125L8 1c.898.315 1.797.63 2.723.953l2.714 1.172 2.56 1.133L18 6l.84 3.219L19 13l-.305 3.71-.57 3.665-.555 3.71L17 27l-1 1c-.07.754-.14 1.508-.21 2.285-.055.917-.11 1.833-.165 2.777L15 38h-3l.563 2.438L13 43l-4 1-.688-3.375L8 37l-1-1 .008-2.285.117-2.778L7 26H4l-1.875-1.813L0 22l-2.074-1.602L-5 19l-4.277-.441-4.66-.122-4.715-.128L-22 18l2-2 3-.5 2-.5-3-.75-3-1.25 2-2.5 3-2.5 2-2 3-1 2.7.078 2.988.172 3.011.203L0 5V0z" transform="translate(186 31)" style="fill:#39130a"/><path d="M0 0v3l-2.398 3.61-1.45 2.035-1.527 2.105-1.598 2.152-1.425 2.02L-10 18c.847.015 1.694.03 2.566.047L-4 17l2.313-1.5L1 14l4.5-.438L10 13l2.875-2L15 9l3-1 4.25-.563L26 8l.625 3.813L25 16l-2.219 1.094-2.656.718-2.68.52L15 19l-3 3-1.973 1.605-2.09 1.582L4 28H2v2l-3 1-3 1v2l3.5-.75L3 32v-2l2-1.563L8 27l3.938-.625L16 26l3.313-.625L22 25l3 1-1 4-3 2-4.45.344-2.568.09-2.67.066-2.705.066-2.556.09L2 33v2H0l.688 2.438L1 40l-2.445.07L-4 41l-.629 4.184-.006 2.56.072 2.694-.033 2.681.03 2.565L-4 60l4 2 3.938.438L7 63l-3 3 2.313.625L9 67v1H4l-1 2-2.063-2.688L-2 64l-4.313-1.625L-10 61v-4l2-1 .23-4.848-.005-3.025-.037-3.19-.002-3.107c-.01-1.511-.01-1.511-.018-3.053l-.065-2.985L-8 33l-.324-4.621L-9 25l-3-2v-2h-2l1-4 2.625-3.688 1.61-2.062L-7 9c.645-.866 1.29-1.732 1.953-2.625l1.922-2.563L0 0z" transform="translate(144 56)" style="fill:#e6b947"/><path d="M0 0h4L3 4l-2.54.836-3.085.539c-1 .235-2 .47-3.031.71L-8 7l-.125 3L-7 13l-1 3h-2v2h2l.3 2.406.013 3.094.05 3.094L-8 29h-3l-.813 4-.187 4h2l-.813 4.625-.359 2.758L-11 47l3.438 3.5L-4 53v2l3 1-1.25 2.313L-4 61l-1 4-2-4-4-2-2.688-4.063-1.285-2.675L-16 49l-.434-4.23-.191-4.52-.04-4.297c-.11-1.304-.22-2.609-.335-3.953l-1.523-3.328L-20 26v-3l-2.813-.438L-26 22l-3-4 .75-2.625L-27 13l1-2h2V8h2l.375-3.5L-20 1l2.516-.43 3.109.055 3.258.195L-8 1l4.5-.5L0 0z" transform="translate(42 70)" style="fill:#2d190f"/><path d="M0 0h2v2l4 2 .734 3.379L7 12l.115 2.792.088 2.985.031 3.053.016 3.108.063 3.189.015 3.025L7 35l-3 1v4l2.188.563L9 41l2.5 1.25L14 44l2.813 2.188L19 49l.563 3.875L19 57l-1.813 4L15 64h-3v2l-4.125.563L3 66l-3.375-2.625-1.445-1.89L-3 59l-.68-3.547-.57-3.828-.629-3.695L-6 45l-2.402-1.055-2.786-.195L-16 44v-2l-4.75-.875-2.754-.5L-26 40l-2.688-1.875L-30 36l1-4 1.875 2.125L-25 37l3 2 2.668.605L-16 40l4.05.238 4.262.075 4.301.113L0 40l1-4 2-1 .613-2.14L4 30l.168-3.234.02-3.516-.02-3.727L4 16l-.45-2.773L3 10.875 2 7V3H0V0z" transform="translate(130 77)" style="fill:#eed268"/><path d="m0 0 3.063.688L6 2l1 3 4 2 2.313 3.188L15 14l.063 3.625L14 21l-2.188 2.371L9 26l-2.973 2.621-3.09 2.817-3.195 3.128L-3 38l-1.492 3.965-.946 3.91-.62 3.68L-7 52l-2.36-.434L-12 50l-3.813-2.938L-19 45v5l-2.813-2L-25 45l-3-3-2-1v-2l1.938.813L-25 41l4.813.5L-16 42v2l2.875.5L-10 44l1.25-2.5L-8 38l1.047-3.5L-6 30l.13-2.709-.005-2.885c-.015-.967-.03-1.933-.047-2.93L-6 18.5l-.078-3.07-.047-2.899L-6 8h2l1-2.875L-2 2l2-2z" transform="translate(212 91)" style="fill:#1c0d08"/><path d="M0 0h3v2l2.5 1L8 4v2l2 1-3 3-.813 4.188L6 18h2l-.313 3.688L7 25l-1-3-2.723-.879-3.34-.683-3.347-.692L-6 19v-2l-2.813.563L-12 19l-1.563 2.563L-15 24l-2.5 1.063L-20 25l-3-4v-5l-4-3-.25-3.563L-26 6l3.75-1.438L-18 4h5l3 2V4l4.438-1.563L-1 1l1-1z" transform="translate(124 47)" style="fill:#f6c209"/><path d="m0 0 2 1-2 3-4 1-3 4-.95 3.094-.737 3.406-.762 3.406L-10 22v6l4 1-1 2-4-2v-2l-4.375-.125-2.734.047L-21 27l-2.89.078-2.735.047L-31 27v-2l-4.063.313L-39 25l-.063-3.438L-38 18l1-1h5v-2h2l2-4 1-2 3.313-1.125L-20 7h4l1-3h9V1l2.875-.75L0 0z" transform="translate(102 76)" style="fill:#f2bd0a"/><path d="m0 0 3.375-.25L8 0l2.617.637 2.633.8 2.453.81L18 3l4 1 3-2h3v2l-3 1 1.125 4.25.902 2.469L28 14l1.688 2.75L31 19v5l-3 4-3.25 1.25L21 30l-3.375.563L14 30l-2.371-1.531-2.441-1.907-2.27-1.933L5 23l-2-1-4.625-.5L-6 21v-1l3.281.254 4.219.308 4.168.063L9 20l.926-2.188-.114-2.75-.48-2.777L9 10l2-1-2-4V2l-4.5-.625L0 1V0z" transform="translate(170 96)" style="fill:#cf2c02"/><path d="m0 0 2.793-.332L5.875-.5l3.11.043L12 0l2.703 1.238 2.422 1.575 2.133 1.582L21 6l2 3v2l3 3h-3l-2-1v2l2.188.813L26 17l2.75 2.875L31 22l1-4 2.18 1.105 2.695 2.082 2.68 2.043L42 25l3 1 .25 4.75L45 35l-1-3-3 1-3.688-1.313L34 30v-2l-4-2-2.75-1.5L25 23v-2l-2.5-.5L20 20v-2h-4l-2.625-2.25L11 13 9 9l-3-.688L3 8 1 7v2l-3.027.336-3.91.039-3.903.086L-13 9l-1-4 3-1.625L-7 2-3.812.812 0 0z" transform="translate(161 117)" style="fill:#5f321b"/><path d="m0 0 2.902.254 4.035 1.308 4.18 1.282L15 4l4.563.563L23 5l3.5 1.5L29 8v1l-4.828.36c-1.023.06-2.045.122-3.099.185l-3.323.205-3.331.239-3.294.28-3.219.327L5 11 .875 12.137l-3.125 1.3-2.578 1.247L-7 16l-4 3-3.063.813L-17 21l-1.688 3.125L-20 27h-3v-2h-3v5l-3 2-1 3-3-1 .188-3.188L-32 27l.75-3.313L-30 21l2.438-1.188L-25 19l3-3 1.375-2.5L-19 11l2.125-1.625L-14 8l4.563-1.688L-5 5h4l2 1-.809-3.035L0 0z" transform="translate(69 67)" style="fill:#7a1f07"/><path d="m0 0 3.563 1L8 3l2.09 1.473L12 6.063 15 9v2l3 1 1.605 2.258 1.582 2.867 1.579 3.004L24 23l.438 4.063L24 30l-1 2-3.438.313L16 32l-2-3 1-1-1.992-.902-2.883-1.035-3.043-1.067L4 24l-2.738-.777-2.45-.598L-5 22v2h-2l.688-2.813L-5 18l3-3 1-3h2l.563-2.75L2 6l1-4H0V0z" transform="translate(153 129)" style="fill:#cd4b06"/><path d="M0 0h3l3 3 2 1 2 4V4h3l.563 2.5L14 9h2l2.188 2.188L20 14l-.063 2.5L19 19l-1.438 2.813L16 24h-2l.063-4.5L14 15h-3l1.188 4.625L13 24h-2.375L7 22l-2.117-1.691-2.133-1.872L.734 16.56C.162 16.044-.41 15.529-1 15l-2-1-4.375.25L-12 15l-4 3-2 3-1-3-3-1v-6l2.082-1.07 2.73-1.055 2.708-1.07L-12 7h3V5l2.813-1.625L-3 2h3V0z" transform="translate(103 12)" style="fill:#5a1604"/><path d="m0 0 2.46-.266 2.915.016 2.898-.016L11 0l4 2 3.563.938L22 4l3 3v2h2l-.625 2.375L26 14l4 2 .375 3.625L30 23h-2l-.125-3.5L27 16l-4-.25-4 .25-1-3-2-1h2l-.438-2.5L16 7l-3.625-.188L9 7V5l-4.313.313L0 6l-3 1v3l-1.906 1.719L-7.5 13.5l-2.77 1.86L-13 17l-4.188 1.75L-21 20l-3.75 1.75L-28 23l-4-1 1.219-2.582 2.281-3.23 2.219-3.208L-24 10l2.281-2.574L-20 6v3l2.813-1.063L-13 6l2.844-1.031c.98-.34 1.96-.68 2.969-1.032l2.832-.972L-2 2l2-2z" transform="translate(165 52)" style="fill:#941702"/><path d="M0 0c1.856.03 1.856.03 3.75.063l2.434.316L9 1l3.41 1.152L15.812 3.5l3.27 1.344L21 6l-4 1h-2l-1 2h2l.438 2.938L17 15l3 1v2h-4v2h6l2 2-.25 3.625L23 29h-2l-.5-3-.5-3h-2v2l-4-2-2.262-1.738L10 19l-.145-2.98.332-3.207.137-3.2L10 7 6.5 5.5 3 6v4h2l1.688 3.75.75 2.477L8 19l.25 3.023-.063 3.102-.347 3.05L7 31l-1.684 2.355-2.066 1.958-2.047 1.675L-1 38l-2.59-.188L-6 37l-2.813-2.313L-11 33v4h-4l-.82-2.66-.305-3.403-.184-3.316L-16 25l2.813-.5L-10 26l2 4 3.625 1.125L-1 32v2h2l.64-1.91c.12-1.02.238-2.04.36-3.09l-.016-4.434L1.88 22.1l-.129-2.538-.082-2.525-.121-2.47L1 10-.547 6.527-2 4V2h2V0z" transform="translate(148 151)" style="fill:#701402"/><path d="M0 0h3l-.625 1.938L1 5-.059 7.441c-.33.845-.662 1.69-1.004 2.559L-2 14l3.063-.813L5 11l4-2 2.438-2.5L14 4l2.25-1.313L19 2l4.313-.25L28 2l4.563.875L36 4v2h-9l-4.5.813L19 8l-1 3-3.063.438L12 12v4l4 2h-2v2l-1.938 1.5L9 23l-3.688 1.063L3 24.53 0 25l-4.375.531-4.813.532-4.605.472L-18 27l-3.55.684L-24 28v-2l2.16-1.516 2.902-1.734 3.043-1.902L-13 19l3.875-2.813L-6 13l1.5-2.492 1.375-2.695 1.18-2.543L-1 3l1-3z" transform="translate(47 41)" style="fill:#bd3e08"/><path d="m0 0 1 3 2.688 1.125L6 5 4 6 0 5l-2.125 3.438L-4 12h-2l1 2 .168 4.254.018 2.592c0 .896 0 1.793.002 2.716l.037 2.635.005 2.62-.054 2.61L-5 34l-.415 2.552c-.17.795-.342 1.59-.519 2.409L-7 43l-1.25 3.063L-10 48l-3.188.438L-16 48v-2l-4.438.125L-25 46l-1-4-3-1v-2l2.266-.633 2.984-.492 2.953-.508L-18 37h4l2-4-.188-3.438L-13 26l-1.438-2.5L-16 21l-1.438-3.75L-18 14l4-1v-2l3-.438L-8 10V7l1.715-1.93 2.223-1.945 2.214-1.992L0 0z" transform="translate(212 87)" style="fill:#451b10"/><path d="M0 0h2.375L5 1l2.313 3.438L9 8v2h2v5h2l-1 3-2 4 2 1-2.508.027-3.617-.09-3.57-.097L-1 23l-4 2-1.746 1.77-1.691 2.043-1.82 2.144L-12 33l-2.813 3L-17 38h-2l.313-2.375L-18 33l1-2h2l.875-4.688.492-2.753L-13 21l2-3.125L-9 16h2l.375-4.125L-6 7l1.938-3.5L-2 1l2-1z" transform="translate(151 10)" style="fill:#1c0e0a"/><path d="m0 0 3 .5L6 2l.125 3L6 8l4 2 4 2 .875 2.688L16 18l3.063 3.688L22 25l1 3 .188 4.125L23 36l-2 1-2-1 .563 2.375L20 41l-3 1-1 3c-1.392-.03-1.392-.03-2.813-.063L10 44l-2.375-1.938L6 40v-2l-3.063-.938L0 36l1-3 2.25.75L6 35l2.625.563L11 36l3 1 .563-3.75-.083-2.5L14 28l-1.137-2.875c-.49-.949-.982-1.898-1.488-2.875l-1.64-2.793L8 17l-3.375-3.063L2 12v-2l-2-.875L-3 8l-4.188-1.938L-11 4l-2-3 2.14-.328 3.11.078c1.016.015 2.032.03 3.078.047L-2 1l2 1V0z" transform="translate(162 124)" style="fill:#501003"/><path d="m0 0 3.762.05 3.925.263 3.95.238L15 1l3 2v2h-2v3l-4 1v2l-2.563 1.313L7 13l1-3h2l1-3 2-1-4.25-.313L4 6l-2 4-3 1-1 2-3.563.5L-9 14v2l-2.375 1.625L-14 19h-2l-2 4-2.813 2.563L-24 28l-2.625 1.563L-29 31l-2.125 2.25L-33 35l-3-1h2l.438-4.188L-33 25l1.438-3.063L-30 20h2v-2l4-2 4 1v2h2v-5l4.25-2.5c.789-.36 1.578-.722 2.39-1.094L-9 9l2.629-2.84L-5 4l-1.988.902-3.324 2.035-3.426 2.06L-17 11l-4 2.5-3 1.5-4-1 2.898-1.926 2.145-1.166 2.332-1.22 4.398-2.364L-12 5l3.164-2.23L-6 1l2.895-.77L0 0z" transform="translate(80 105)" style="fill:#a07c53"/><path d="m0 0 4 1-1.563 1.813L0 5l-3 4h-2l-1 4-2 3-4-1-1.563 4.313-.718 2.78L-15 25l-.781 2.719-.781 2.593L-18 35l-1.813 3.063L-20 40l4.625.875 2.727.18L-10 41l4-1v-2l4-1v-2l4-1-.875 2.125L-1 39l-2.586 2.504L-7 44l-4.234 1.582-4.516 1.23c-1.5.42-3 .838-4.547 1.27L-24 49h-2l1.438 3.5L-24 56l-4.313.875L-33 56l-1.188-3.188L-34 49l.688-2.938L-32 44h4l.758-2.266.367-2.984.383-2.953L-26 33l2-4h2l2-4 .973-2.332 1.09-2.48 1.312-2.66L-15 15l2.188-1.996 2.374-1.754 2.352-1.652L-6 8l2.438-3.313L-2 2l2-2z" transform="translate(86 114)" style="fill:#c23b07"/><path d="m0 0 2.777-.629 3.16.067 2.997.128L11 0 9.5 1.875 6 4l-2.508.863L1 6-.773 7.988l-1.602 2.324-1.797 2.461L-6 15l-3.625 2.438L-13 20l-1.48 2.418-1.332 2.707-1.145 2.57L-18 30l-2 3h-2l-.816 2.52-.747 3.292-.753 3.27L-25 45l-1 3-2.563 1.188L-31 49l-.563-3.563L-31 41l1.875-3.313L-27 35l2-3-4 1-.418-2.098.23-2.965.372-3.066L-28 22l3.375-3.5L-21 16l3-3 2.688-1.063L-13 11V9l3.438-.438L-6 8l1-3h3l.816-2.465L0 0z" transform="translate(84 110)" style="fill:#691a07"/><path d="m0 0 2 1-.063 3.563L2 8h3l-.125-4.063L5 0l2.5-.094L10 1l.383 2.504-.258 3.058-.242 3.067L10 12h3v2h3v2h4l2.496-.305L25 15l2.098-1.445 1.965-1.68L33 9l4.25.125L41 10h4l2.543.148 2.645.227L55 11l1 2-2.25 1.5L51 16l-3 2h-4l.688 3.313L46 25l1 3-2.188-.25L42 26l-.98-2.184-.895-2.503L38 17l-3.688-.188L31 18l-1 2 2 1-2.727-.016-3.898-.234-3.852-.203L18 20l-4-3-3.25-.438L8 16v-4l-4-1-.32 4.863.066 3.127.129 3.323.105 3.287.075 3.138.109 2.908L4 34l-2 2-1-1-.19-2.36-.091-3.1-.114-3.368L.5 22.625l-.105-3.523-.114-3.375L.19 12.62 0 10l-1-3 .313-3.75L0 0z" transform="translate(98 181)" style="fill:#1f140f"/><path d="M0 0h1l.188 3.438L1 8l-.59 2.57-.66 2.492L-1 17l4-1v4l2.938.125L10 20l4.875.813L19 22l1 3-2.875 1.563L14 28l-1 2-3.375 2L6 34l-3 2 2-4 3-1v-2l3-1 2-3 3-1-2.55-.168-3.762-.02-3.739-.042L3 24v2l-4 1v2l-4 2-3-.313-3-.687-4-1 .133-2.129L-14 24l.867-3.34 1.008-3.598.992-3.59L-10 10l1.383-3.504L-7 4l4 1 2-4 1-1z" transform="translate(81 125)" style="fill:#df560c"/><path d="m0 0 4 3v2h3l-.25 2.75L6 11l-1 4H1l-1.063 2.313L-1 20l-3 3-4.688.563L-13 24v2l-3 1-3.574.168-4.113.02-4.137.042L-31 27v-2l-2.313-.75L-36 24l-3 2-3-.188-3-.812-3-3-2.688-.625L-53 21v-1l3.375-.438L-46 19l2-2 3.195-.809 3.93-.628 4.129-.516L-29 15l4.063 2.313L-21 20l3.555.703 3.883.36c1.823.14 1.823.14 3.683.285L-7 21l1-4 3-1.625L0 13l.652-2.371.285-2.691L1 3 0 0z" transform="translate(149 126)" style="fill:#f2a137"/><path d="M0 0v5l3.098.273 3.965.102 3.972.086L14 6l-1 4h2l-2 4-2 1-1-2-3.875 2.688-2.117 1.636L2 19l-3 3-2.438 2.438L-6 27l-2.063 2.375L-10 31l-4-1-.5-4.563.117-2.746L-14 20l1.625-4.125L-10 12l1.46-2.133C-8.03 9.17-7.522 8.47-7 7.75L-4 4l2.375-2.688L0 0z" transform="translate(101 151)" style="fill:#d66625"/><path d="m0 0 4.125 1.188 2.488.859L9 3l3.313 1.938L15 7l2.375 2.125L19 11v2h-2l1 2 3.5 1.875L25 19l1 4-3.188.313L19 23l-4-1v-3l-3.438-.688L7 18l-4.625-.25L-2 18l-3.375 1.438L-8 21l-3 1v2l-2.5-.5-2.5-.5v2l-3 1 .125-2.625L-18 20l1.375-2.813L-15 15l3-1 1-3 2.941-.434c1.195 0 2.39-.002 3.621-.004l3.63-.058L2 11v4l3.688.5L9 15l-3-4V8H4l-.438-2.938L3 2 0 1V0z" transform="translate(68 26)" style="fill:#641f05"/><path d="m0 0 3.762-.098 3.613-.027 3.398-.008L13 0l-2 1 1 2 4 2h-5l1.375 2.813L15 10c1.238-1.02 1.238-1.02 2.5-2.063L20 5l4-2 2.688-.563L30 3l2.21 1.46 2.352 1.853 2.32 1.933L39 10l2.938 1.875L44 13l2 1-1.063-4.438L44 5h3l.063 4.438L47 14l2 1-4.188-.25-2.769-.297L39 14l-3.262-.703-3.113-.797L28 11l4-1V7h-5v3l-2 1-.688 3.875L24 19l1 3-4.375-.625L16 20l-1-3h2l-2.188-3.188-1.722-1.933L11 10 8.566 8.527 5.875 7.25l-2.84-1.188L0 5l-3.379-.938-3.308-.812-3.075-.672L-12 2V1l2.168-.316 3.02-.247C-5.734.357-4.655.275-3.543.192L0 0z" transform="translate(70 22)" style="fill:#b24b25"/><path d="m0 0 4.25-.563L8 0l.625 3.813L7 8 4.781 9.094l-2.656.719c-.884.17-1.769.342-2.68.519L-3 11l-3 3-1.973 1.605-2.09 1.582L-14 20h-2v2l-2.39 1.484L-21 24l-1.11-2.36c-.21-1.118-.422-2.237-.64-3.39l-.672-3.36L-24 12l-1-2 3.375-2.063 2.23-1.066L-17 6l4.688-.5L-8 5l2.875-2L-3 1l3-1z" transform="translate(162 64)" style="fill:#d67909"/><path d="M0 0h3l1.563 1.813L6 5l.633 2.57.554 2.867.504 2.895L8 16l-.375 3.625L8 22l3.375 1.125L16 23l4.5-1.375 2.5-1.102L26 19l4.125-2.273 2.186-1.23L34.5 14.25l4.156-2.422L42 10h2l-2 4-3 3-3 1-2 2h-2l-.5 2.5L31 25h-2l-1-2-3.563.25L21 24v2h-2l-1 1.938L17 31l-.938 4.75L15 40l-3 1v-2h2l-.5-3-.5-3h2v-3l-2.438.563L10 31l-1-4-2.25-2.5L4 22l-2.813-1.938L-1 18l-.438-3L-1 12l2-4h-2l-.188-2.875L-1 2l1-2z" transform="translate(31 99)" style="fill:#4c2510"/><path d="M0 0h4v2l3.75.5L12 3l4 2 .375 4.188L16 13l-2-1-4.133-.168-4.992-.02-2.574-.037-2.434-.005L-4 12v2l-2.117 1.586-2.758 1.789-2.742 1.773L-14 21l-2 4-2 1-.309 3.414-.128 4.211-.122 4.227c-.145 1.039-.29 2.078-.441 3.148l-3-1-1.313-2.375L-24 35l2-3 .492-2.523.383-2.852.5-2.953L-20 21l1.875-3.125L-16 16l4-1 2-3 .375-2.625L-9 7l4-1 1.625-2.5L-2 1l2-1z" transform="translate(114 64)" style="fill:#f2cb5e"/><path d="m0 0 4 1 2.063 3.688L8 9l1.375 3.188L11 15l2.688 2.938L17 20l3.875-.125L25 19l4.25-.75L33 18l4 3-3.313-.625L30 20l.375 2.375L31 25l-1.875.813L26 26l-4.625-.125L17 26l-3 3-3.125 1.625L8 32l-1 1-4.375.5L-2 34l-3 1v-2l3-2h4v-2h2l-.125-2.438L3 24l-4-1v-1l2.938-.25L5 21l.75-2.438L6 16l2-2H6V9H4L1.875 5.625 0 2V0z" transform="translate(156 11)" style="fill:#794e41"/><path d="M0 0h5l3 3 .25 4.688-.09 2.695L8 13l-.313 4.063L7 21l-.664 2.496L5.562 26 4 30H2v-2h-4l-.063-3.688L-2 20l-1.188-2.688L-5 15l-2.75-2.5L-10 10l.063-2.625L-9 5l2-3L-3.687.812 0 0z" transform="translate(196 37)" style="fill:#1d0f0a"/><path d="M0 0h5L4 4l3.938 1.063L12 6v3c1.227.015 2.454.03 3.719.047L20.5 8.75l4.781-.328L29 9l.719 3.543L29 16l-3-.438L23 14v-2h-2v-2h-4v2l-2.45.23-3.238-.043-3.199-.019L5 12l-2.977-.82L0 11l.363 2.09.95 2.848.48 2.792L1 21l-3.887.738-4.988.012-2.585-.067-2.47-.136L-17 21l-1-2-4-1-1 2-3 1-2.188 1.938L-30 25v2l3 1-3 1-4.75.375L-39 29l-.438-2.375L-38 24l2.813-1.063L-32 22l1.688-2.063L-28 18l4.875-.938 2.879-.195L-17 17l3.902.758 3.91.93 3.708 1.011L-3 20l-2-4-2-2 2.5.563L-2 15l-2-3 .188-4.688L-3 3h3V0z" transform="translate(97 29)" style="fill:#db5d0a"/><path d="m0 0 3.438-.5L7 1l.441 2.543.059 3.144.059 3.27L8 13l1.598 2.2 1.964 1.675L15 19v-2h2l.938 3.125L18 23l-2.313-.875L13 21l-2 4-1.75 3.188L7 31l-3.25.688L1 32v3l-2.25.75L-4 36l-4-1-4 1v-2l-3.875-.188L-20 34l-2 1 .25-3.375L-21 28l2-1 1 3 4 1v-4l4 2 2 2 2.813-.063L-2 30l2.813-1.688L3 25l.602-3.2.336-3.675.14-3.719L4 11l-.813-4.375L2 4H0V0z" transform="translate(151 157)" style="fill:#2f150a"/><path d="m0 0 2.48-.363 2.708.05L10 0v2l4 2 1 2 .168 2.313.02 2.687.042 2.688L15 16l-2 2-4 1-2.508.203-2.617.047L-1 19l-2-3c-.1-1-.199-2-.3-3.031L-3.314 9.5l-.05-3.469L-3 3l3-3z" transform="translate(109 90)" style="fill:#ecdfb1"/><path d="m0 0 2.375.938L5 2l4-1c.905-.148 1.81-.296 2.742-.45C12.776.473 13.81.395 14.875.313l3.441.004L22 1l3.965 2.09 3.848 2.66 3.582 2.672L36 11v4l-3 1-2.84.168-3.098.02-3.152.042L22 16l4-2-3-2-3.547-.746-4.203-.691-4.172-.684L7 9 3.11 7.652 0 6l-2-4 2-2z" transform="translate(69 61)" style="fill:#9e6323"/><path d="M0 0h2v2H0l-.438 2.75L-1 8l-3 4 1 3 2-3 2 1-.25 3.563L0 20h-2l-.266 2.188L-2.25 25l-.016 2.813L-2 30h2v2l2 1-2.43.02-3.445-.208-3.43-.167L-10 32v-4l-4 1-.172-3.55.422-4.762.39-4.739c.12-1.303.238-2.606.36-3.949v-2l1.645-1.727 2.168-1.898 2.144-1.914L-5 3h3V1l2-1z" transform="translate(94 113)" style="fill:#f1a629"/><path d="M0 0v3l-1.426 1.902-1.887 2.035c-.614.67-1.23 1.339-1.863 2.028L-7 11l-3 4-1.625 3.125L-13 22l-.586 2.71L-14 27.5V32l2.063.563L-9 31l3.063-3.5L-3 24l4-1 1-3 1.777-1.64 2.16-1.61L10 14l2 1-1.414 2.617-2.211 3.258-2.164 3.242L4 27l-4 3v-2l-3 1-1.14 2.758-1.11 3.367-1.285 3.285L-8 41l-3.688.563L-15 40l-1.223-2.2L-17 35c-.015-1.018-.03-2.037-.047-3.086l.297-3.289.324-3.465L-16 22l1.063-3.938L-14 15l-.125-3.25L-14 9l4-3h3l1-3 3.063-1.875L0 0z" transform="translate(101 149)" style="fill:#6d1501"/><path d="m0 0 4.5-.75L9 0l.813 2.438L10 5l4 1 2 4-2 4h2l.563 2.813L16 20l-3.188 1.938L9 23l-2.688-.125L4 22l-4-3-1-3-.125-4.25L-1 7l-.063-4.063L0 0z" transform="translate(140 97)" style="fill:#f2bc11"/><path d="m0 0 2.688.313L5 1v2l4.191-.129 2.612-.197 2.76-.236 2.771-.249 2.607-.193L24 2l-1 3h-2v2l-3.063-.625L15 6l1 4 2.25 1.414L21 12.625l2.75 1.227L26 15l1 2 .875 3.25L28 23l-2-.313L23 21l-3.438-2.5L16 16l-3.25-1.125L10 14l-3-3-3.54-.625L-.624 10l-4.102-.375L-8 9l-1-3 4-1 2-4 3-1z" transform="translate(75 47)" style="fill:#eca80c"/><path d="m0 0 3.688-.188L6 0v2l-2.844.125L-.5 2l-3.656-.125L-7 2v2h-5v2h-3v2l-4 .938L-23 10v3l-3.188.875L-30 15l-2.668 2.02L-35 20l-.883 4.207-.242 4.605-.32 4.645L-36 37h5l4-1v-2h6v-2l3.063-2.125 2.187-1.047L-13 28l3.625-.328 3.938-.047 3.753.04c1.216.11 2.432.22 3.684.335l3.965.96L9 30v1l-2.816-.191-3.747-.372-3.69-.378C-2.49 30.039-3.727 30.019-5 30l-3.54.715L-12 32l-3.395 1.945c-1.127.72-2.255 1.439-3.418 2.18l-3.656 2.16L-26 40l-3.094.559c-.897 0-1.794.002-2.718.004L-36 40l-1-1-.027-3.344.09-4.156.097-4.156L-37 24l-2-1 .688-2.188L-37 18l1.5-3.188L-34 12l2-2 2.625-.875L-26 8l3.938-1.938L-18 4l3.313-1.688L-11 1l2.672-.406 2.89-.281 2.836-.188L0 0z" transform="translate(85 76)" style="fill:#d43d04"/><path d="m0 0 4 2 1.875 2.563L8 7l3 1.063L14 8l2.188-2.063L18 4l3 2 .688 2.188L22 11l.125 3.625L22 18l-1 3-3 1-1-3h-2l-.055 2.258.18 2.867L15 29l-4-2-1-4H8l-.563-3.25L7 16l-1-4-3.063-.625L0 11V9h4L2.25 6.75 0 4V0z" transform="translate(164 160)" style="fill:#271a11"/><path d="M0 0h2l1 2h4v3H5l.5 3 .5 3H4v2l2.188-.563L9 11l2.625-2.625L14 6h3l.434 2.266.003 2.984-.074 3.078L17 17l-1.875 2L13 21l-.605 2.742-.457 3.133-.348 3.055L11 32l-3-2v-2l-2.813-.188L2 28l-3 1 1-3h2l.75-3.813.219-2.453L3 17l-.281-3.047-.469-3.015-.484-2.848L1 6h-3l.688-3L0 0z" transform="translate(39 127)" style="fill:#312921"/><path d="m0 0 3 1 2 4h3L7 9l-2.438 2.75L2 14H0v3l-3 .813L-6 18v-2h-2v-5h-2V9h-4l-1-3-2-1-1-4 3.586-.355 4.789.167 4.773.145L-1 1l1-1z" transform="translate(204 80)" style="fill:#26150d"/><path d="m0 0 2.427-.145L5.81-.168l3.705-.018 3.924-.002 3.818-.037 3.74-.005 3.645.062L28 0l2.844.338 2.433.459L37 2l2.125 3.438L40 9l-1 3v-2h-2l.586 2.406.789 3.094.367 3.055L38 21l-3.242.695-4.258-.07-4.281-.336L22 21l-4.031.617L15 22v-2.5l2-2.5 4.375.25L26 18l4-1-.625-4.375L28 8l-2-3V2l-2.387-.417-3.3-.06-3.555-.093L13 1.375l-3.758-.078-3.555-.086-3.3-.053L0 1V0z" transform="translate(142 96)" style="fill:#db6506"/><path d="m0 0 2.688.625L6 3l1.75 3.938L9 11l2 4 .5 4.25L12 23h2v3l-2 1-3.063.5L5 27l-2.39-1.527-2.422-1.91-2.27-1.934L-4 20l-2-1-4.625-.5L-15 18v-1l3.281.254 4.219.308 4.168.063L0 17l.926-2.188-.114-2.75-.48-2.777L0 7l2-1L.75 2.75 0 0z" transform="translate(179 99)" style="fill:#d24305"/><path d="m0 0 2 2 .703 2.793.547 3.394.496 3.528L4 15l-.688 4.25L2 22l-3 1-1-2-4 1v-3h-2l-2 3h-2l-.3-2.809c-.005-1.197-.009-2.395-.012-3.628l-.051-3.622L-12 9l3-1V6l4-1 2-3 1 1 2-3z" transform="translate(39 131)" style="fill:#101310"/><path d="m0 0 4 1 3.855 1.777 4.332 2.16 4.356 2.153L20 9l1 2-2.5-.75L16 10l-.125 2.813L17 16l2.813 1.313L22 18l-4 1 1 3-4-2-1-3h-2l-.438-2.5L11 12H8l.438 2.438L9 17l-2 1-.313-2.813L6 12l-2.563-1.25L1 10V8h-3v2l-4.125 1.875L-10 13l2-4 1-2h2V5h2l2-4 1-1z" transform="translate(105 4)" style="fill:#4f443e"/><path d="M0 0h3l-.625 1.938L1 5 .047 7.3l-.922 2.45L-2 14l4 1-1.625 3.688L-1 22l2.375-.563L5 20l4.063-.313L12 20l-3 3-3.563 1.063-2.367.468L0 25l-4.383.531-4.804.532-4.606.472L-18 27l-3.55.684L-24 28v-2l2.16-1.516 2.902-1.734 3.043-1.902L-13 19l3.875-2.813L-6 13l1.5-2.492 1.375-2.695 1.18-2.543L-1 3l1-3z" transform="translate(47 41)" style="fill:#663f2f"/><path d="m0 0 1 4-.125 4.938-.063 2.64L1 14l1.875 3.188L4 19l-2.75-.313L-2 18l-1 2-2.375 1.625L-8 23h-3l-1.25-3.938-.473-2.468L-13 14l.313-4.938L-12 5l1-2h5l1 2 2-3h3V0z" transform="translate(79 173)" style="fill:#190d09"/><path d="M0 0h1l.313 4.875.113 2.742L1 10l-4 2-1 4h-2v2l-2.938-.125L-12 18l-1 4h-4l-1-3-1.75-2.063L-22 15l-2.75-1.063L-27 13v-3l3.719-.617 4.781-.258 4.781-.305L-10 9v3h2l1-3h4V4h2l1-4z" transform="translate(144 153)" style="fill:#dd5d10"/><path d="m0 0 2.77-.46c1.004.027 2.008.056 3.042.085l3.083.04c.694.11 1.39.22 2.105.335L9 2 6 3 4 6H1v2l-4 3-1.563 3.438L-6 18l-3 4-.438-3.188L-9 15l4-1v-3l-2.313.563L-10 13l-3 4-3.813 1.75L-21 20l-3.438.5L-27 20l-1.438-2.313L-28 15l3.813-1.625 2.507-.703L-19 12l2.617-.672 2.57-.703 2.516-.746L-9 9l3.438-2.438L-3 4l3-4z" transform="translate(88 148)" style="fill:#6b280d"/><path d="m0 0 2.875-.625L6 0l1.813 4.438L9 9l1 1 .203 2.836.047 3.539.078 3.523L10 23l-3 3-2.813 2.688L1 31l-3.375.438L-5 31v-2l-2.5-1.063L-10 27v-1l4.25-1.063L-1 24h4l2-4-.188-3.438L4 13l-1.438-2.5L1 8-.25 4.25-1 1l1-1z" transform="translate(195 100)" style="fill:#951903"/><path d="m0 0 4 1 3 2 .52 2.313L7.813 8l.453 2.723L9 13l3.063 1.438L15 15l1 3h3l3 3 .464 2.79.118 3.331.135 3.58.096 3.736.154 3.819.115 3.553.1 3.306L23 47l-2-4-.492-2.953-.383-3.297-.484-3.477L19 30l-1.016-2.523-1.109-2.102L15 22v-3l-2.176-1.094L10 17l-2.605-.719-2.582-.781-2.622-1.027L0 13l-1.16-2.379-.59-2.684L-2 3l2-3z" transform="translate(3 93)" style="fill:#170703"/><path d="m0 0 3 1H1L0 4l-2.313.875L-5 6l-2.188 2.625L-9 11h-2V9l-3 1-1.938 4.063L-17 18h4v3l4 1-.938 2.5L-11 27l3 1h-4v2l-4 2-2.715.14L-21 31l-.629-3.64.067-4.61-.004-4.578L-21 14l1.848-2.922L-17 9l3-2 3.188.063L-8 7V4l4-2h4V0z" transform="translate(70 82)" style="fill:#e35302"/><path d="m0 0 2.438.313L5 1l4 2 .875 2.625L10 8H8v2l-3.5 1L1 12v2l-2.813 1.625L-5 17h-3l-2 4v-3l1-2 3-1 1-2-2.75-.313L-11 13l-3 3-2-1 3.25-3.375 1.953-1.836L-9 8l2-3h2l2-4 3-1z" transform="translate(150 32)" style="fill:#c24108"/><path d="M0 0h2v2l2 1-1 3 4 2v2l2.188.563L12 11l2.813.438L17 12v2l4.875-.125 2.742-.195L27 14l2 4 .457 2.586.355 2.789.516 2.922L31 29l2.063 3.625L36 35l4.813 1H45v-2h3l2-4 1-4.813L52 21l2 1-.063 4.813-.332 2.738L53 32l-2.25 2.5L48 36l-2.313 1.25L43 38l-4.063.5L35 38l-2.25-2.813L31 32l-4-3-.398-2.41.023-2.652L26 19l-2.625-1.563L20 17l-3.875-.5L13 16v-2l-3 .063L7 14v-3l-3-1V7l-2.5-.5L-1 6V3h2L0 0z" transform="translate(97 107)" style="fill:#f2d24c"/><path d="M0 0h4L3 3-.813 6.188-4 9h4V6h2V4l3-1.313L8 2v3L6.094 6.719 3.5 8.5.73 10.36-2 12l-4.188 1.75L-10 15l-3.75 1.75L-17 18l-4-1 1.219-2.582 2.281-3.23 2.219-3.208L-13 5l2.281-2.574L-9 1v3l3.375-1.25L-2 1l2-1z" transform="translate(154 57)" style="fill:#812606"/><path d="m0 0 3.57.3L6 1 3 2l-.563 2.563L2 7H0v2l-3.938 1L-8 11l-1 2-2.063 1.938L-14 18l-2.04 2.738-2.148 3.012-2.042 2.922L-22 29l-2 1 .25-2.938L-23 24h2l.512-2.184L-20 19l.832-2.535.98-2.527.958-2.536L-16 9l1.77-2.133L-12 5l2.805-1.52 3.07-1.292L-3.07.855 0 0z" transform="translate(154 44)" style="fill:#683312"/><path d="m0 0 1 2 3.563.5L8 3v2l3.063.012L15 4.688l3.938-.301L22 4V3l2.781-.168 3.719-.02 3.863.032L36 3l4.688.813L44 5l3 3-1 4-2.652-.23-3.285-.957-3.278-.918L34 9l-2-1-3.209-.174-4.1-.072-4.45-.1-4.678-.091-4.667-.08-4.455-.104-4.103-.076L-1 7l-3-2 2-1V2h2V0z" transform="translate(146 89)" style="fill:#801e03"/><path d="M0 0h1l.063 3.98-.024 2.53L1 9.188l-.04 2.619-.022 2.548L1 19l.152 3.094L2 24l2.504.55c1.01-.078 2.019-.156 3.059-.238l3.03-.382L13 23l.563-4.063L13 15h2v-3l2.5-1.813L20 10c.2 1.077.2 1.077.402 2.176L20.437 15l-.066 2.938L20 20l-2-2-.75 3.625L16 26l-2.563 2.5L10 30l-4.875.5L1 30v-4h-2l-1-2-.168-3.668-.02-4.52-.042-4.48L-2 7c.313-1.337.626-2.674.95-4.05L0 0z" transform="translate(113 167)" style="fill:#481305"/><path d="m0 0 2 1-2.813 3.438L-4 8l-1 2-.375 4.063L-6 19l-.8 2.594-.888 2.468L-9 28h2v2h3v4l4.438.563L5 35l1 3-1 3H3l.5-2.5L4 36H2l.05 2.512.263 3.175.078 3.055L2 47l-3.438-.688L-5 44l-1-2 4 1-.438-2.125C-2.953 39.926-3.468 38.977-4 38l-2.438-2.188L-9 33l-.957-2.469-.793-2.718L-12 23l-1-2 .313-2.688L-12 16l2 1 .875-4.813.367-2.769L-8 7l4-2 2-4 2-1z" transform="translate(59 141)" style="fill:#281008"/><path d="m0 0 4 1 4 2-2.375 2L2 7l-3.063 1.063L-4 9l-2.688 1.313L-9 12l-1.625 2.5L-12 17l-3 3h-4l-.625 2.875L-20 26l-2 2-1-3 .313-4.188L-22 17h2v-4l2.313-1.75L-15 10h3l2-4 2.875-2.25L-4 2h4V0z" transform="translate(58 68)" style="fill:#603119"/><path d="m0 0 3.938-.438C5.277-.292 6.617-.148 8 0l2.5 1.5L12 4l.5 4.063L12 12l-4 3-3.5.5L1 15l-2.438-2.063L-3 10l-.438-3.625L-3 3l3-3z" transform="translate(134 123)" style="fill:#ecdba2"/><path d="m0 0 4.25-.125 2.695.027L10 0l3.555.191 3.57.246 3.383.247L23 1v1l-4.75.25-3.02.242L12 3 8.738 4.07 5.563 5.375 2.628 6.648 0 8l-4 3-3.063.813L-10 13l-1.688 3.125L-13 19h-3v-2h-3v5l-2 1 .063-3.75L-20 15l2.438-2L-15 12h2l.809-2.297L-11 7l2.348-1.766 2.714-1.484 2.723-1.516L-1 1l1-1z" transform="translate(62 75)" style="fill:#9b1c03"/><path d="m0 0 4 .813L8 2V0h2v2l3.625-.875L18 0l3.5-.375L24 0v4l-2.25 1.625L19 7l-4 2-1.125 3.375L13 15l-2-4-4-1-2.625-.875L2 8 0 5V0z" transform="translate(120 13)" style="fill:#2d160c"/><path d="m0 0 3 1v2l3 1 1.605 2.258 1.582 2.867 1.579 3.004L12 15l.438 4.063L12 22l-1 2-3.438.313L4 24l-2-3 1-1-1.992-.902-2.883-1.035-3.043-1.067L-8 16l-2.738-.777-2.45-.598L-17 14v2h-2l1-3 3.238-.582 4.075-.23 4.05-.27L-3 12l4 2v2l3-1 1.313-2.25L6 10l-.625-2.75L4 5 0 4V0z" transform="translate(165 137)" style="fill:#c73710"/><path d="m0 0 3.813-.188L7 0v2L5 3l-.5 3L4 9l-2 1-1 4h2l-.313 3.688L2 22l-.688 3L1 27h2v-2l4 1-1.875 2L2 30l-3.438 1.313L-4 31l.438-4.125.695-2.504L-2 22l1.813-3.063L1 17h-3l-1.203-2.484-1.047-3.266-1.078-3.234L-6 5l1-4 2.125-.75L0 0z" transform="translate(49 24)" style="fill:#37211c"/><path d="M0 0h2v3l2 1 2.323.142 2.868.034 3.112.072 3.26.064 3.271.03 3.107.084 2.866.044L27 5l1 4 4 1v2l-2.188.938L27 13l-2.438-2.375L22 8l-2.563-.813L16 7l-3.05-.082-3.325-.043-3.21-.008L4 7v1l-3.5.168-4.5.02-4.5.042L-12 8V6l-3.5-.5L-19 5V3l4-1 3.418-.281 3.77-.219 3.792-.219L-1 1l1-1z" transform="translate(166 86)" style="fill:#541706"/><path d="m0 0 2 1-2 3-4 1-3 4-.914 3.094-.711 3.406-.727 3.406L-10 22l-1 4-2.563.25L-16 25l-.438-3.75L-16 17l.875-2.813L-14 12l2-3-4-1 1-4 4.563-.063L-6 4V1l2.875-.75L0 0z" transform="translate(102 76)" style="fill:#f2bb21"/><path d="m0 0 2.941-.469L6.563-.5C7.76-.53 8.957-.562 10.19-.594L13 0v5l4 1-4.438.875-2.87.516C8.802 7.59 7.914 7.793 7 8L4 9.625 2 11H0v2l-2.5-.5L-5 12v2l-3 1 .125-2.625L-7 9l1.375-2.813L-4 4l3-1 1-3z" transform="translate(57 37)" style="fill:#631104"/><path d="M0 0h2.375L5 1l2.313 3.438L9 8v2l2 1H8L6 7H4L3 4l-.313 3.563L2 12l-2 2.313L-2 16l-1 3-2.375 1.188L-8 21h-3l.688-2.5L-9 16h2l.375-4.125L-6 7l1.938-3.5L-2 1l2-1z" transform="translate(151 10)" style="fill:#241c18"/><path d="M0 0h2L0 4l-3 3-3 1-2 2h-2l-.5 2.5-.5 2.5h-2l-1-2-3.563.25L-21 14v2h-2l-1 1.938L-25 21l-.938 4.75L-27 30l-3 1v-2h2l-.5-3-.5-3h2v-3l-2.438.563L-32 21l-1-4 2.281-1.598 3.219-1.464 3.156-1.473L-21 11l3.45-1.422L-14 8l3.676-2.043 3.636-2.144 3.676-2.168L0 0z" transform="translate(73 109)" style="fill:#5b4832"/><path d="m0 0 1 3-1.313 3.688L-1 10l2.813.25L5 10l1 3h2v2h10v2l4 1-1 2-4-2v-2l-4.375-.125-2.734.047L7 16l-2.89.078-2.735.047L-3 16v-2l-4.063.313L-11 14l-.063-3.438L-10 7l1-1h5V4h2l2-4z" transform="translate(74 87)" style="fill:#eba20e"/><path d="m0 0 3.762-.098 3.613-.027 3.398-.008L13 0l-2 1 1 2 4 2h-5l2.938 3.688L16 10.898 18 13l2.438 2.813L22 18v3l-2.938-.125L16 20l-1-3h2l-2.188-3.188-1.722-1.933L11 10 8.566 8.527 5.875 7.25l-2.84-1.188L0 5l-3.379-.938-3.308-.812-3.075-.672L-12 2V1l2.168-.316 3.02-.247C-5.734.357-4.655.275-3.543.192L0 0z" transform="translate(70 22)" style="fill:#92837a"/><path d="m0 0 2 1L.187 2.875-2 5l-1 3h-2v5l-4 1-1 2h-2l-1-2-3.563-.09-4.437.152-4.438.16L-29 14l-1-3 4-3 4.688.563c.868.12 1.737.242 2.632.367L-16 9l2.617-.742 2.445-1.07L-7 5l1-2h3V1l3-1z" transform="translate(146 149)" style="fill:#e47522"/><path d="M0 0h1l.125 4.563L2 9l3.313.125L9 8l4-1-1.438 2.25L9 12l-2.375 1.375L4 15 .937 18.75-2 22l-4-1-.5-4.563.102-2.726L-6 11l1.875-4.438L-2 3l2-3z" transform="translate(93 160)" style="fill:#bf2e07"/><path d="m0 0 2.75-.438L6 0l2.418.875 2.52 1.188L13.27 3.41 15 5l.125 4L14 12l-1-3-2.723-.879-3.34-.684-3.347-.69L1 6V4l-2.813.563L-5 6l-1.563 2.563L-8 11l-2.5 1.125L-13 12l-2.125-2.25L-16 7l1.938-1.688L-11 4l3-1.063L-5 2-2.5.875 0 0z" transform="translate(117 60)" style="fill:#f4c31e"/><path d="m0 0 2.188.563L5 2l2.75 2.875L10 7l1-4 2.18 1.105 2.695 2.082 2.68 2.043L21 10l3 1 .25 4.75L24 20l-1-3-3 1-3.688-1.313L13 15v-2l-4-2-2.75-1.5L4 8V6L2 5V3L0 2V0z" transform="translate(182 132)" style="fill:#3e3936"/><path d="M0 0h1l.395 2.563L1.812 6l.536 3.594L3 13l1.75 4.5L7 21l3.25 2.875L13 26v2l4 2 1.75 2.5L20 35v2h-2l-2-4-4-2-.5-2.688L11 26l-4 1-1.313-2.813L4 21l-2.89-1.133L-3 19l-2.634-.324-2.862-.274-2.94-.24-3.002-.224-3.083-.237-2.913-.236L-25 17v-1l4.813-.14 3.007-.06 3.18-.05 3.18-.004 3.008-.074L-3 15v-5h3l.258-2.188L.125 5 .008 2.187 0 0z" transform="translate(201 59)" style="fill:#73463b"/><path d="M0 0h4v2h2v2l2.375.5L11 5l2 2-4 1-3.453.168-3.797.02-3.828.042L-5 8V6l-3.375-.938L-12 5l-1.313 2.438L-14 10h-2l-1.688-4.563L-17 1l3.727-.305 4.71.368 4.81.597L0 2V0z" transform="translate(114 39)" style="fill:#f39104"/><path d="m0 0 3.813-.313L8 0l2.875 1.938L13 4l2 1 .375 3.625L15 13l-1.438 3.938L11 20l-4.313 1.313L2 21l-4.063-2.25L-5 15l-.535-2.746-.09-2.941.086-2.825L-5 4l3-3 2-1zm0 2-3 3-.438 3.375L-3 12l1.563 2.938L1 17l3.5.5L8 17l4-3 .5-3.938L12 6l-1.5-2.5L8 2l-4.063-.438L0 2z" transform="translate(134 121)" style="fill:#f1db84"/><path d="m0 0 3 .5L6 2l.125 3L6 8l4 2 4 2 1.5 3.688L16 19l-4-1-2-4-3.063-1.063L4 12 3 9H1L0 7l-4.875-.875-2.68-.367L-10 5l-3-4 2.043-.426 3.145.114 3.105.074L-2 1l2 1V0z" transform="translate(162 124)" style="fill:#471805"/><path d="M0 0h3L2 4l-3.75 2.625-2.18 1.527L-6 10l-1.57 2.504-1.305 2.684-1.117 2.542L-11 20l-2 3-2-1 1-2.625L-13 17l-2 1-2-1v-2h2l-.188-2.688L-15 9l2.313-2.875L-10 4h3V2L-3.687.875 0 0z" transform="translate(77 120)" style="fill:#7b1703"/><path d="m0 0 3.457-.484L7 1l.642 2.268.182 2.904-.013 3.203-.123 3.375.005 3.328-.056 3.219-.203 3.064L7 25l-1.902 3.152L3 30 .75 31.813-2 33l-3.875.25L-10 33l-4.188-.438L-17 32l3-1v-4l4 2 2 2 2.813-.063L-2 30l2.813-1.688L3 25l.602-3.2.336-3.675.14-3.719L4 11l-.813-4.375L2 4H0V0z" transform="translate(151 157)" style="fill:#491706"/><path d="m0 0 4.188-.125L9 0c1.392-.03 1.392-.03 2.813-.063L14 1l2.313 4.188.957 2.453L18 10l.5 3.438L18 16l-4 2-3.063.25L8 18l-3-2-1 2 .125-2.875L5 12h5L8 8l2.75-2.813L13 3l-2.688.375L7 4V1L3.5.875 0 1V0z" transform="translate(154 97)" style="fill:#e68b03"/><path d="m0 0 1 3-.508 4.668-.318 2.709-.299 2.81-.242 2.815-.106 2.666L0 23l2.379 1.176L5.437 24l3.122-.688L11 23v4l-2.336 1.04c-1.003.192-2.006.386-3.039.585l-3.023.664L0 29l-1.352-2.434L-2 23l-.125-4.262.125-4.425.125-4.512L-2 7l-.813 1.855L-4 12l-3 3-3.313 1.438L-13 17l2-4 1.586-2.473 1.789-2.59 1.773-2.597L-4 3l4-3z" transform="translate(115 163)" style="fill:#9b4023"/><path d="m0 0 2.668.73 2.144 1.083L8 4l1 1 3.16.281 3.902.219 3.91.219L23 6v1l-2.844.246-3.656.191-3.656.184L10 8v2l-2.188-.172L5 9.25l-2.813-.547L0 8V6l-2.484-.125L-5.75 6l-3.234.125L-12 6l-4-2 2-2 2.977-.773 3.648-.602 3.8-.512L0 0z" transform="translate(119 141)" style="fill:#f5b939"/><path d="m0 0 3.688.188L7 1 6 5 3 7l-4.45.344-2.568.09-2.67.066-2.705.066-2.556.09L-16 8v2h-2l.688 2.5L-17 15h-5l-1.313-3.438L-23 8l3.938-.813L-15 7V5l2-1.563L-10 2l4.188-.625L-2 1l2-1z" transform="translate(162 81)" style="fill:#a9814d"/><path d="m0 0 3.688-.313L7 0l3.25.75L13 2l3 4-3.563.688L8 7 4 8 1.25 6.812-1 6v4l-3 1-2-1V6h-5l2-1V3l4.063-1.625 2.492-.77L0 0z" transform="translate(70 56)" style="fill:#5a3d1d"/><path d="M0 0c1.67-.03 1.67-.03 3.375-.063L8 1l2.723.95 2.714 1.175 2.547 1.316C16.65 4.956 17.314 5.471 18 6l1.188 4.063L19 13l-1-4-3-1V6l-2.45.18-3.238.695-3.316.844L3 9l-1.84 2.094-1.285 2.281L-2 17l-2-3-.375-4.063L-4 6l4-2V0z" transform="translate(186 31)" style="fill:#3f2b23"/><path d="M0 0h3l1 4 2 1-1 3-2.25 2L0 12l-2.563 1.5L-5 15l-2.125 2.25L-9 19l-3-1h2l.438-4.188L-9 9l1.438-3.063L-6 4h2V2l4-2z" transform="translate(56 121)" style="fill:#c0ae7e"/><path d="M0 0h2l-.242 2.973L2 6l2.492.621 3.383-.184 3.574-.156L15 6l3.02-.281 2.668-.282L25 5l2 1-1-4h5l3 3v2l4 2v4l-3.313-.625L31 11l-3-2-2.803-.303-3.361-.076-3.648-.103-3.813-.08-3.836-.092-3.64-.1-3.355-.072L1 8 0 7l-.188-3.563L0 0z" transform="translate(19 171)" style="fill:#170503"/><path d="m0 0 2 2 .188 2.75L3 8l3.563 3.25L10 14v2l3 1-1.25 2.313L10 22l-1 4-2-4-4-2-1.484-2.102L.25 15.375l-1.27-2.695L-2 10l-.438-4.5L-2 2l2-2z" transform="translate(28 109)" style="fill:#221d14"/><path d="m0 0 3 1v4l3 1 .582 2.758.23 3.367.27 3.383L7 18l-2-1-.5-2.938L3 11l-2.352-.734-2.773-.454L-7 9V6l-4 1V4l3-1 1-2 3.375-.688L0 0zm-14 7h3v2l-3.313 1.625L-18 12h-3l3-3 4-2z" transform="translate(125 76)" style="fill:#edd780"/><path d="m0 0 4 1 2 1 .438 3L7 8l3 1v2H6v2h6l2 2-.25 3.625L13 22h-2l-.5-3-.5-3H8v2l-4-2-2.219-1.73L0 12l-.531-3.05.031-3.262-.031-3.301L0 0z" transform="translate(158 158)" style="fill:#6d5b3e"/><path d="M0 0h2l2.375 2.375L7 5l4 2 1 3 .25 3.688L12 17H9v5H7v2l-4 1-2-1v-2h-2l1-4 2.563.813L5 19l.625-3.813-.11-2.484L5 10 3.797 7.172 2.375 4.438.898 1.87 0 0z" transform="translate(171 142)" style="fill:#731706"/><path d="m0 0 4.75.188 2.672.23L10 1l4 3-1 2-3.125 1.625L6 9l-3.875-.25L-1 9l-.813 3.5L-2 16h-2v-2h-2l.25-2.5L-5 9h2l-.063-2.938L-3 3l3-1V0z" transform="translate(56 24)" style="fill:#21110d"/><path d="m0 0 3.64-.203L8.25-.25l4.578-.078L17 0l2.797 1.328L22 3l4 3v2h3l.313 4.5L29 17h-2l.5-2.5.5-2.5h-2l-1.625-2.375L22 7l-4.125-1.25L14 5l-2-1-2.39-.238-2.86-.075-2.98.008L1 4l-3.563 2.063L-5 8l-2-1V5l2.938-2.063L-1 1l1-1z" transform="translate(164 49)" style="fill:#5b1004"/><path d="M0 0h3l-.285 2.66-.777 3.402-.786 3.41L1 12l4-1v4l2.938.125L12 15l4.875.813L21 17l1 3-2.875 1.563L16 23l-1 2-3.375 2L8 29l-3 2 2-4 3-1v-2l3-1 2-3 3-1-3.426.043-4.886.145-4.864.167L1 19v-4h-2l-.188-3.563L-1 7l.313-4L0 0z" transform="translate(79 130)" style="fill:#ce7025"/><path d="m0 0 3.375-.25L8 0l2.617.637 2.633.8 2.453.81L18 3l4 1 3-2h3v2l-3 1 1.125 4.25.902 2.469L28 14l1.688 2.75L31 19v5l-3 4-2.688.938L23 29v-3h-2l1-4 3.25.875L28 23l-.813-4.563-1-2.789L25 13l-2.313-3.438L20 7l-2.707-1.559L14 4l-3.648-.914-3.727-.711-3.773-.727L0 1V0z" transform="translate(170 96)" style="fill:#b82507"/><path d="M0 0h5v3l-4.438.563L-4 4l-1 2-2.434.492-3.003.383-2.997.367L-16 8l-2 4-1 2h-2v2h-5l2-1v-3l2.438-1.875L-19 8l.5-2.75L-18 3h5V1l2.668-.414 3.52-.211 3.48-.227L0 0z" transform="translate(91 77)" style="fill:#e58805"/><path d="M0 0h2v2l-3.188 1.313L-5 5l-2.563 2.5L-10 10l-3.188 1.813L-16 13h-2v4h-2v8l-2 4v-9h-2v-2h2l.188-3.313L-22 11l-1-3 2.387-.809 3.3-.628 3.262-.622c1.007-.31 2.014-.62 3.051-.941.715-.677 1.43-1.354 2.168-2.05L-7 1l3.625-.75L0 0z" transform="translate(56 68)" style="fill:#452414"/><path d="M0 0h4v2l3.75.5L12 3l4 2v3l-2.746.223-3.691-.16-3.852-.079L2 8l-2.898.328-2.414.485L-7 10l-1 3-2-1 .125-2.5L-9 7l4-1 1.625-2.5L-2 1l2-1z" transform="translate(114 64)" style="fill:#f5c93b"/><path d="m0 0 4.938-.75 2.73-.02L10 0l1.238 2.488.512 3.075.012 3.046L11 11l-4.438.313-2.75-.59L1 10l-4.938-.75L-7 8l1.875-2.5L-2 3l2-2V0z" transform="translate(172 36)" style="fill:#231712"/><path d="m0 0 2 .875L5 2l4.875-.25 2.61-.074L15 2l2.203 1.293 1.922 1.644L22 8v1l-3.035.203-4.027.047-4.141-.031L7 9 2.687 7.75 0 6l-2-4 2-2z" transform="translate(69 61)" style="fill:#ba9b69"/><path d="m0 0 3 1v4l-3.902.46-2.448-.01-2.587-.075-2.577-.004-2.45-.035L-15 5l-1-2-4-1-1 2-3 1-2.188 1.938L-28 9v2l3 1-3 1-4.75.375L-37 13l-.438-2.375c.475-.866.95-1.732 1.438-2.625l2.813-1.063L-30 6l1.688-2.063L-26 2l4.875-.938 2.883-.19L-15 1l3.867.723 3.883.902 3.672.977L-1 4l-1-3 2-1z" transform="translate(95 45)" style="fill:#c96008"/><path d="m0 0 2 1L.586 3.617l-2.211 3.258-2.164 3.242L-6 13l-4 3v-2l-3 1-1.14 2.758-1.11 3.367-1.281 3.297L-18 27l-3.75.375L-25 26l-1-2h4l1-2 3 1 .809-2.203.628-3.047.622-3.016L-15 12l4-3h2l1-3 1.777-1.64 2.16-1.61L0 0z" transform="translate(111 163)" style="fill:#581504"/><path d="m0 0 2.688.313L5 1v2l3.5.16 4.5-.098 4.5-.09L21 3v1l-4.848.027-3.021-.037-3.194-.053-3.205-.064-3.017-.033L-1 4l1 2 2.5-.625L5 5l1 4 4 2 3 1.563L15 14l-4 1-1.77-1.871L7 11l-3.637-.723-4.05-.34-4.075-.347L-8 9l-1-3 4-1 2-4 3-1z" transform="translate(75 47)" style="fill:#d78c15"/><path d="m0 0 3.563-.188L7 0v2l3-1 3.563-.188L17 1l2 2h-8L7 5 5.254 6.77 3.563 8.813l-1.82 2.144L0 13l-2.813 3L-5 18h-2l.313-2.375L-6 13l1-2h2l.598-2.152.465-2.786.472-2.777L-1 1l1-1z" transform="translate(139 30)" style="fill:#591704"/><path d="m0 0 2 1-2 4v2l-2.875-.125L-6 7l-2 4 2 1-3.25 1.875L-13 16l-2 3-1-3-3-1V9l2.082-1.07 2.73-1.055 2.708-1.07L-9 5h3V3l2.875-1.688L0 0z" transform="translate(100 14)" style="fill:#49271c"/><path d="m0 0 2.777-.629 3.16.067 2.997.128L11 0 9.5 1.875 6 4l-2.563.875L1 6l-2.25 3.25L-3 12l-1-2-4 2h-6v2l-2.375.375L-19 15l-2 4-2.5 2.313L-26 23l-2-1 3.188-2.875L-21 16l3-3 2.688-1.063L-13 11V9l3.438-.438L-6 8l1-3h3l.816-2.465L0 0z" transform="translate(84 110)" style="fill:#6d2b0b"/><path d="M0 0h3l3 3 2 1 1 4-4 1v4l-4.063-.125-2.46-.387L-4 12l-4.188-.938L-11 10l2-2 3.188.625L-3 9l-1-4 1.75-2.75L0 0z" transform="translate(103 12)" style="fill:#311309"/><path d="m0 0 4 3v2h3l-.25 2.75L6 11l-1 4H1l-1.063 2.313L-1 20l-3 3-2.324.68L-9 24l-2.895.133-2.918-.008-2.957.008L-20 24v-1l2-.563 3-.437 4.25.25L-7 22l.625-2.25L-6 17l3-1.688L0 13l.652-2.367.285-2.695L1 3 0 0z" transform="translate(149 126)" style="fill:#f0af25"/><path d="m0 0 2 1L.75 4.688-1 9l-1.313 3.5L-3 15h2l.25 3-.25 3h-2l-.938 3.063L-5 27l-3-1-.328-2.25.078-2.75.047-2.75L-8 16l1-1 .125-3.875L-7 7l-1-3h2l2 2 1-2.313L-2 1l2-1z" transform="translate(137 20)" style="fill:#7d3d27"/><path d="m0 0 2 4v3l2 1 .238 2.652c.025 1.084.05 2.169.074 3.286l.051 3.277L5 20l2.543 1.254L10 22v2l3.688-.313L18 23l3.25-.75L23 22l-4 3h-2v2l-2.25 1.188L12 29l-4-1-4-1-.977-3.71-.648-4.665-.664-4.648L1 10l-2-3 .25-3.938L0 0z" transform="translate(35 94)" style="fill:#8f3c1e"/><path d="m0 0 4.563-.5L9 0v1H4l-.48 3.867.103 2.434.19 2.574.207 4.992L5 19l3.2 1.445L11 21l-2 2-2.375-.188L4 22l-4-3-1-3-.125-4.25L-1 7l-.063-4.063L0 0z" transform="translate(140 97)" style="fill:#f3c82c"/><path d="M0 0h1l.25 2.375L2 5l2.5 1.125L7 7l1 3 3 1v3l4 1-4 1-1 4-2 3H6l-1-3v-4h3v-4l-3 2-4-1-2-4 .313-4.75L0 0z" transform="translate(116 161)" style="fill:#cc4107"/><path d="m0 0 3 1v5l4.688.25 2.753-.133L13 6l3.125.375L18 7v2l4.188.063L27 9l3.313.375L32 10l-4 2-4.125-.625L20 11l-2 4-1-2-3 1 1-4-2.895-.32-3.918.195-3.894.18L1 10l-2-2 2-2 1-4H0V0z" transform="translate(100 147)" style="fill:#ea8132"/><path d="m0 0 1.938.875L5 2l3.813-.313L13 1l4.25-.75L21 0l4 3-3.313-.625L18 2l.375 2.375L19 7l-2 .813L14 8l-3.5.125L7 8l-2.875-.25L2 7 1 3 0 0z" transform="translate(168 29)" style="fill:#7b6a65"/><path d="m0 0 3 4 1 2 .387 4.684.154 2.81.146 2.944.182 2.931.143 2.815L5 27l-2 3H1v-2l-3.75-.563L-6 27l4-1 1.082-3.246.73-4.192.739-4.355L1 10 .855 6.574.5 3.75 0 0z" transform="translate(146 155)" style="fill:#b12905"/><path d="M0 0h2l.344 3.938.09 2.46L2.5 9l.066 2.602.09 2.46L3 18h2v2H2v-2h-3l-.371-2.371-.067-3.066-.058-3.06L-2 7l-4-1-.063 3.938L-6 14h-3l-.313-3.875L-9 6l2-2 3.063-.438L-1 3l1-3z" transform="translate(109 175)" style="fill:#401d0e"/><path d="m0 0 2 1L.75 3.688 0 6l2.188-.563L6 4l2.61-.598 2.828-.527 2.847-.488L17 2l4.375-.313L24 2l-3 3-3.563 1.063-2.367.468L12 7l-4.383.531-4.804.532-4.606.472L-6 9l-3.55.684L-12 10V8l2.371-1.691 3.066-1.872 3.06-1.878L-1 1l1-1z" transform="translate(35 59)" style="fill:#866e64"/><path d="m0 0 4 3 4.25.563L12 4v2l2.688.5L17 7l-3 2-3.003.06-3.634-.267-3.935-.28-4.116-.325-4.15-.292-3.924-.29-3.623-.277L-15 7V6l4.5.125L-6 6V3l2.438-1.125L-1 1l1-1z" transform="translate(174 83)" style="fill:#3a0f01"/><path d="M0 0h1v5h-3l-.582 3.281-.23 4.219-.27 4.219L-3 20h2v4h-5l-1-2 .063-3.125L-7 16h-2v-5l2-3h3l1.063-2.875L-2 2l2-2z" transform="translate(81 125)" style="fill:#e66a14"/><path d="M0 0h5L2.875 2.563 1 5l2.938-.313L8 4l2.938.75L13 6v3h-2V7l-3.188-.25L4 7 1.437 8-1 9h-6l-4 2v2l-4 2h-3v-2l3-1 3-1V9l2.75-1.938L-6 5l4-3h2V0z" transform="translate(158 75)" style="fill:#7a431a"/><path d="m0 0 4.313-.625L8 0l.438 3.875L7 8 3.75 9.5 0 10h-5l1-2-2-1 .625-2.438L-4 2l4-2z" transform="translate(162 64)" style="fill:#e75d05"/><path d="m0 0 4 2v5L0 9v2h2v2l2.223.125L7.063 13H12l-1 2-4.625.313-2.754-.043L1 15l-3.563-1.5L-6 12l-2.535-.129-2.59.066L-15 12l3-2 4.563-.938L-3 8l2-3 .375-2.813L0 0z" transform="translate(174 63)" style="fill:#c0562c"/><path d="M0 0h2l-.25 3L1 6h-2v2h-2v2l-4 1-1 3-3 1-.871-2.02-.566-2.793-.622-2.769c.02-.798.04-1.596.059-2.418l4-2c2.073.03 2.073.03 4.188.063L-1 3l1-3z" transform="translate(151 71)" style="fill:#f1aa0e"/><path d="m0 0 4 1-3 1 2 2-3 3-3.813 1.688L-8 10l-3.438.5L-14 10l-1.438-2.313L-15 5l4.063-1.688 2.515-.683L-6 2-2.687.75 0 0z" transform="translate(75 158)" style="fill:#6c1d06"/><path d="m0 0 3.086-.168 3.289-.02 3.434.032L13 0l4.438.813L20 2l-2 3-3.23.363-3.957-.05L6.894 5.3 3 5l-3.926-.895L-4 3l-1-2 2.04-.613L0 0z" transform="translate(185 77)" style="fill:#372117"/><path d="M0 0h3l.563 2.5L4 5h2l2.188 2.188L10 10l-.063 2.5L9 15l-1.438 2.813L6 20H4l.063-4.5L4 11H1L.312 7.75 0 4V0z" transform="translate(113 16)" style="fill:#521a0c"/><path d="M0 0h1l.605 2.598.583 3.465.523 3.582L3 13l-.688 4.25L1 20l-3 1-1-2-4 1-.938-2.375L-8 15l3-1v-2h2l.5-3 .5-3h2l.063-3L0 0z" transform="translate(40 133)" style="fill:#191a15"/><path d="m0 0 2.813-.5L6 1l2 4 3.625 1.125L15 7v2l2 1-1 1-3.313.25L9 11 5 8v4H1L.18 9.34l-.305-3.402-.184-3.317L0 0z" transform="translate(132 176)" style="fill:#81361c"/><path d="m0 0 3 1L.375 3.25-3 6l-1.563 2.5L-6 11l-2.516 2.16L-11 16l-.855 3.84-.332 4.098-.356 4.152L-13 31l-2-2-.3-3.406c-.005-1.351-.009-2.702-.012-4.094l-.051-4.094L-15 14l3-2 1.313-2.375L-9 7l3-2.25L-3 3l3-1V0z" transform="translate(110 76)" style="fill:#eeca6b"/><path d="M0 0h1l.063 3.98-.024 2.53L1 9.188l-.04 2.619-.022 2.548L1 19l.152 3.094L2 24l2.504.55c1.01-.078 2.019-.156 3.059-.238l3.03-.382L13 23l.563-4.063L13 15h2v-3l2 1-.813 2.188L15 18l-.438 3.188L14 24l-3 2-2.883.266-3.242-.016-3.258.016L-1 26l-1-2-.168-3.668-.02-4.52-.042-4.48L-2 7c.313-1.337.626-2.674.95-4.05L0 0z" transform="translate(113 167)" style="fill:#6a1403"/><path d="M0 0h3.063L6 1l1 3 1.125 4.188L8 12l-4.375.938L-1 12l-1.188-3.188L-2 5l.563-3L0 0z" transform="translate(54 158)" style="fill:#a37748"/><path d="M0 0h2v2l3.625-.875L10 0l3.5-.375L16 0v4l-2.25 1.625L11 7 7 9l-2 4V7H3L1 3 0 0z" transform="translate(128 13)" style="fill:#2e221c"/><path d="m0 0 4 1 2.063 3.5L8 9l1.023 2.531L9.938 14 11 18H8v3l4 1v4l-4-1-3.438-.938L2 23l3-2 .563-2.5L6 16l2-2H6V9H4L1.875 5.625 0 2V0z" transform="translate(156 11)" style="fill:#523d35"/><path d="m0 0 1 4 .188 3.438L1 11l-.875 3L-1 16l-2-1-2-4V8h-2l-2 4-1-2 1-3h-2V3h5l1 2 2-3h3V0z" transform="translate(79 173)" style="fill:#25140d"/><path d="M0 0h5l1.938 2.688L8 6l-.563 2.813L6 11l-4 1v-2l-4-1-2 1-.375-2.938L-4 4h4V0z" transform="translate(164 141)" style="fill:#e53d03"/><path d="M0 0h4L3 4 1.562 6.688 0 9l-2 1-.309 3.414-.128 4.211-.122 4.227C-2.704 22.89-2.849 23.93-3 25l-3-1-1.313-2.375L-8 19l2-3 .492-2.523.383-2.852.5-2.95L-4 5l1.875-3.188L0 0z" transform="translate(98 80)" style="fill:#f1c346"/><path d="m0 0 4 1 2.613 1.05 2.7 1.263L12.05 4.55 14 6l-1 4-3.75-1.813L5 6l-2.625.063L0 7l-3.125 1.375L-6 10l-3 3v-3l2-3h2V5h2l2-4 1-1z" transform="translate(105 4)" style="fill:#94837f"/><path d="M0 0c1.274-.095 2.547-.19 3.86-.29 1.613.22 3.227.44 4.89.665l4.922.586L17 2l-1.2 1.988L13 6 8.437 7.813 4 9 1 8 0 6l-.61-3.148L0 0z" transform="translate(94 161)" style="fill:#d34815"/><path d="m0 0 3.027-.688L6.937-1l3.891.02L14 0l1.047 2.95.14 3.737-.207 3.762L15 14l1.238 2.77L18 19l4 3 3.25.625L28 23v1l-4.125.5L19 24l-3.375-2.625-1.445-1.89L13 17l-.68-3.547-.57-3.828-.629-3.695L10 3 7.598 1.945 4.813 1.75 0 2V0z" transform="translate(114 119)" style="fill:#f2d85d"/><path d="m0 0 2.875.25L6 1l2.938.625L11 3l-.063 3.5L10 10l-2 2-4-1 3-1V7l-4.188-.75L-2 6l-3.188.5L-7 7l2-1 2-4 3-2z" transform="translate(164 74)" style="fill:#46230d"/><path d="M0 0h3l.434 2.266.003 2.984-.074 3.078L3 11l-1.875 2L-1 15l-.605 2.742-.458 3.133-.347 3.055L-3 26l-3-2v-4h2l.5-4.25L-3 11l2-4h-5l2.5-3.5L0 0z" transform="translate(53 133)" style="fill:#3f2617"/><path d="m0 0 4 2 .375 3.125L4 8H2l-.438 2.313L1 13l-3 3-3.313.438L-8 16l2-4 2-4h2l.563-2.875L-1 2l1-2z" transform="translate(156 133)" style="fill:#e57209"/><path d="M0 0h2l1 4-.27 3.016-.542 3.234-.52 3.266L1 16h-2l.625 3.063L0 22l-4-1-.496-3.309.059-4.128.003-4.122L-4 6l3-2 1-4z" transform="translate(43 93)" style="fill:#c65b32"/><path d="m0 0 3.625-.328 3.938-.047 3.753.04L15 0l3.965.96L22 2v1l-2.816-.191-3.747-.372-3.69-.378C10.51 2.039 9.273 2.019 8 2l-3.504.707L1 4c-1.225.665-2.45 1.33-3.71 2.016L-6.376 8.25c-1.225.748-2.45 1.495-3.71 2.266L-13 12l-1-2 1-2h3V6h2V4l3.063-2.125L-2.75.828 0 0z" transform="translate(72 104)" style="fill:#924314"/><path d="M0 0h1v5l-3 2.813L-4 10l3.688.188L4 10v2l-3.316.844-4.247.656-4.253.719L-11 14l-.105-2.8L-10 8l2.25-2.688L-5 3l2.75-1.813L0 0z" transform="translate(57 49)" style="fill:#ad5639"/><path d="m0 0 4.125 1.188 2.488.859L9 3l3.313 1.938L15 7l2.375 2.125L19 11v2l-3 1-3-4V8l-2.688.188L8 9l3 3-1 3-2.063-1.625L6 11V8H4l-.438-2.938L3 2 0 1V0z" transform="translate(68 26)" style="fill:#533425"/><path d="m0 0 2 .313L5 2l1.938 1.637L9 5.5l2.055 1.844L13 9l3.125 2H18l-.875-4.375L16 2h3l.063 4.438L19 11l2 1-4.188-.25-2.769-.297L11 11l-3.262-.703L4.625 9.5 0 8l4-1V4H0V0z" transform="translate(98 25)" style="fill:#ac3b0e"/><path d="m0 0 2 1-.172 3.238-.578 4.074C1.07 9.65.89 10.986.703 12.364L0 16l-2 4h-3v-4h-2v-5l1.875-2.75L-3 6l2-1 .5-2.625L0 0z" transform="translate(146 161)" style="fill:#c23501"/><path d="m0 0 2 2v4l3 1v3.313L4 15l-1.121 3.2-1.317 3.3-1.308 3.156L-1 27h-2v2l-2-1 1.25-4 .879-2.473L-2 19l1.188-4.438L0 10c.017-.944.034-1.887.05-2.86L0 4.314V0z" transform="translate(23 134)" style="fill:#463731"/><path d="M0 0h5v2c1.227-.017 2.454-.034 3.719-.05 1.578-.087 3.155-.174 4.781-.262l4.781-.301L22 2l.719 3.547L22 9l-3-.438L16 7V5h-2V3h-4v2l-2.695.23-3.43-.043L.43 5.168-2 5l2-1V0z" transform="translate(104 36)" style="fill:#ed6b03"/><path d="m0 0 2.5.625L5 2v3l4 1 1 3-4.688-1.625-3.042-.926L-1 6l-3.3.832-3.2 1.356-2.969 1.417L-13 11l-3 2 1-4 3.375-2.063L-8 5l3-3 2.688.5L0 3V0z" transform="translate(126 203)" style="fill:#1a0703"/><path d="m0 0 4.063-.625L8 0l1 4.438L8 9l-3.938 1.125L0 10l-1-1-.125-4L-1 1l1-1z" transform="translate(136 127)" style="fill:#eedbb1"/><path d="m0 0 2.875-.625L6 0l1.813 4.438L9 9l1 1 .168 2.871.02 3.566.042 3.56L10 23l-2 2-.125-2.43L8 19.125l.125-3.43L8 13H6l-.5-2.5L5 8H3l-.438-2.938L2 2l-3-1 1-1z" transform="translate(195 100)" style="fill:#6c1705"/><path d="m0 0 3.188.188L6 1 5 4H2l-.996 2.012L0 9l-1.473 3.77-1.59 4.043-1.597 4.082L-6 24h-1l.313-4.5L-6 15h2l.371-2.188.067-2.812.12-2.813L-4 5h-5l1-4 1 2 2.438-.25L-2 2l2-2z" transform="translate(139 44)" style="fill:#dc6b0c"/><path d="M0 0h3.75l2.434.344L9 1l3.41 1.156L15.812 3.5l3.27 1.344L21 6l-4 1-4 1-4.5-.75L4 6 0 3V0z" transform="translate(148 151)" style="fill:#772610"/><path d="m0 0 3.688-.188L6 0v2l-2.844.125L-.5 2l-3.656-.125L-7 2v2h-5v2h-3v2l-2.188.344L-20 8.5l-2.813.156L-25 9v2l-4.063.75L-33 12l1-2 2.563-.875L-26 8l3.938-1.938L-18 4l3.313-1.688L-11 1l2.672-.406 2.89-.281 2.836-.188L0 0z" transform="translate(85 76)" style="fill:#bf3604"/><path d="m0 0 4 1-1.563 1.813L0 5l-3 4h-2l-1 4-2 3-4-1-1 2.875L-14 21l-4 1 .688-3L-15 15l2.078-1.816 2.36-1.746 2.406-1.735L-6 8l2.438-3.313L-2 2l2-2z" transform="translate(86 114)" style="fill:#b94718"/></svg>